<svg width="122" height="91" viewBox="0 0 122 91" fill="none" xmlns="http://www.w3.org/2000/svg">
<path d="M14.993 31.8425C14.993 31.0688 15.1208 30.5544 15.1208 30.0379C15.1208 29.2642 15.1208 28.4905 15.1208 27.7167V26.4286C15.1208 25.1405 14.993 23.8503 14.993 22.5622C14.993 21.2741 14.8651 19.8552 14.8651 18.565V15.3437C14.8651 14.9579 14.8651 14.4413 14.8651 14.0556V11.9937C14.7373 11.0914 14.7373 10.3177 14.7373 9.54397V6.96562C14.7373 6.4491 14.8651 5.93471 14.8651 5.28959C14.8651 5.0324 14.8651 4.77306 14.993 4.51587C14.993 3.99934 15.1208 3.61355 15.2487 3.09702C15.2487 2.71124 15.5044 2.4519 16.0179 2.19471C16.5315 1.93752 17.0429 1.93752 17.6843 1.80892H18.7092C19.0949 1.68032 19.6063 1.55173 19.9899 1.55173C20.5035 1.55173 20.887 1.68032 21.4006 1.68032C22.042 1.80892 22.8112 2.58264 22.8112 3.22776C22.8112 4.00148 22.9391 4.64661 22.9391 5.28959V5.67538C22.9391 5.80397 23.0669 5.93257 23.0669 5.93257C22.9391 7.09208 22.9391 8.12299 22.9391 9.15604C22.9391 9.54183 23.0669 9.92976 23.0669 10.3156C23.0669 10.7013 23.0669 11.0893 22.9391 11.6037C22.9391 12.2488 23.0669 12.8918 22.9391 13.5369V17.1461C22.8112 18.0485 22.8112 19.0794 22.8112 20.1103C22.8112 20.3675 22.6834 20.7554 22.6834 21.1412C22.6834 21.7863 22.5555 22.56 22.6834 23.203C22.6834 23.9767 22.5555 24.6219 22.5555 25.3934C22.5555 25.6506 22.6834 25.91 22.6834 26.2958C22.6834 26.4244 22.5555 26.6815 22.6834 26.8123V27.7146C22.6834 28.4883 22.6834 29.1334 22.6834 29.7764V34.288C22.6834 34.6738 22.5555 35.1903 22.5555 35.5761V37.3807C22.5555 38.2831 22.5555 39.314 22.4276 40.3449C22.4276 41.1186 22.5555 42.0209 22.6834 42.7946C22.9391 43.8255 23.0669 44.7279 23.0669 45.6302V48.5943C23.1948 49.368 23.1948 50.1418 23.1948 50.9133C23.1948 51.0419 23.1948 51.2991 23.0669 51.4299C22.8112 52.075 22.8112 52.718 22.8112 53.3631V54.5226C22.6834 55.2963 22.6834 56.1986 22.8112 56.9724C22.8112 57.101 22.8112 57.101 22.9391 57.101C23.1948 57.7461 23.1948 58.5198 23.1948 59.1628C23.0669 59.2914 23.0669 59.5486 23.0669 59.8079C22.9391 60.0651 22.9391 60.3244 22.8112 60.5816C22.8112 61.0982 22.4255 61.4839 21.7862 61.4839C21.2727 61.4839 20.6313 61.3553 19.992 61.3553H18.0678C17.5543 61.3553 17.0429 61.3553 16.5293 61.2267C16.4015 61.2267 16.2736 61.2267 16.1436 61.0981C15.5022 60.841 15.1187 60.453 14.9908 59.81L14.6073 58.2626C14.6073 58.0054 14.3516 57.7461 14.2216 57.4889C13.9659 57.1031 13.838 56.8438 13.708 56.458L13.3245 53.751C13.1966 52.9773 13.0688 52.2036 12.6831 51.432C12.4274 50.6583 12.2995 49.8846 12.1695 49.1108C12.1695 48.5943 12.0417 48.0799 11.9138 47.5634L11.2724 45.373C11.0167 44.5993 10.8889 43.8256 10.7589 43.0518L10.3753 40.7307C10.2475 40.3449 10.2475 39.957 10.1196 39.5712C9.99176 38.926 9.8639 38.2831 9.8639 37.6379C9.73605 36.8642 9.48034 36.0905 9.35036 35.3168V34.6717C9.22251 34.1551 9.22251 33.7693 8.9668 33.2528C8.9668 32.9956 8.83894 32.7363 8.71109 32.3505C8.58324 31.9647 8.32753 31.5768 8.19755 31.0624L8.06969 30.9338C7.94184 32.0933 7.94184 33.1242 7.94184 34.1573C7.94184 35.0596 7.94184 36.0905 8.06969 36.9928C8.06969 37.8951 8.19755 38.7974 8.19755 39.6998C8.19755 40.3449 8.3254 40.9879 8.3254 41.633C8.3254 42.6639 8.3254 43.6948 8.19755 44.7257C8.06969 46.1446 8.06969 47.5613 8.06969 48.8515C8.06969 49.4966 7.94184 50.1396 7.94184 50.7847C7.81398 51.1705 7.81399 51.5585 7.81399 51.9443C7.81399 52.8466 7.81398 53.6203 7.94184 54.5226C8.06969 55.1677 8.06969 55.8107 8.06969 56.4558C8.06969 56.9724 8.06969 57.4867 8.06969 57.8747V58.5198C7.94184 58.9056 8.06969 59.4221 7.94184 59.9386C7.94184 60.3244 7.81398 60.7124 7.55828 60.9696C7.55828 61.0982 7.30257 61.2267 7.17472 61.2267C6.78903 61.2267 6.53332 61.2267 6.27761 61.0981C5.89405 61.0981 5.50836 61.0982 5.1248 60.9696C4.99694 60.841 4.74124 60.841 4.4834 60.841C4.35555 60.841 4.35555 60.841 4.22769 60.7124C3.71415 60.5838 3.20273 60.5838 2.81917 60.7124C2.30563 60.9696 1.92207 60.9696 1.5385 60.7124C1.2828 60.4552 1.15281 60.1958 1.02496 59.9386C0.641399 59.2935 0.383561 58.5198 0.255707 57.7482C0.127854 57.491 0.127854 57.1031 0.127854 56.8459C0.127854 56.0722 0.255707 55.4271 0.255707 54.6555C0.255707 54.3983 0.255707 54.139 0.255707 53.8818V52.7223C0.255707 52.2057 0.255707 51.6913 0.383561 51.1748C0.383561 50.5297 0.383561 49.756 0.511414 49.113C0.511414 48.3393 0.511414 47.6941 0.511414 47.0512V44.7343C0.383561 43.832 0.383561 43.0583 0.383561 42.1559C0.383561 41.3822 0.511414 40.4799 0.383561 39.7062C0.383561 38.9325 0.383561 38.2873 0.255707 37.6444C0.127854 36.9992 0.255707 36.3563 0.127854 35.8397V35.5825C0.127854 35.1968 0 34.9374 0 34.5516V32.747C0 32.2305 0.127854 31.5875 0.127854 31.071V29.6521C0.127854 28.8784 0.127854 27.9761 0.255707 27.2024C0.255707 26.3 0.255707 25.5263 0.383561 24.624C0.383561 23.9789 0.383561 23.2052 0.511414 22.4336C0.511414 21.2741 0.639268 20.2432 0.639268 19.0815V15.6008C0.639268 14.8271 0.511414 14.182 0.511414 13.539C0.383561 12.3795 0.383561 11.2179 0.383561 10.0584V8.12513C0.383561 7.6086 0.383561 6.96562 0.511414 6.4491V6.06331C0.511414 5.41818 0.511414 4.7752 0.639268 4.13008C0.639268 3.74429 0.639268 3.35636 0.767121 2.84197C1.02283 2.45619 1.28067 2.32545 1.66423 2.19685C2.04992 2.06825 2.43348 1.93966 2.68919 1.93966C3.45844 1.93966 4.09984 1.93966 4.86696 1.81106C5.3805 1.68247 6.01977 1.68247 6.66117 1.93966C7.30257 2.06825 7.81612 2.45619 8.32753 2.84197C8.58324 3.22776 8.71109 3.61569 8.71109 4.13008C8.9668 5.0324 9.09678 6.06331 9.48034 6.96562C9.8639 7.73934 10.1217 8.64166 10.2496 9.41538L10.6332 11.0914C10.6332 11.6079 10.6332 12.1223 10.761 12.5103C10.8889 13.5412 11.1446 14.4435 11.4024 15.4744L11.786 17.5362C11.9138 18.3099 12.0417 18.9551 12.1717 19.7288L12.5552 21.1476C12.6831 21.7928 12.8109 22.5665 12.9409 23.2095L13.7102 26.3022C13.838 27.2045 14.0959 28.2354 14.3516 29.2663C14.3516 29.6521 14.4794 30.04 14.6073 30.5544C14.7351 30.8116 14.7351 31.1996 14.863 31.4567C14.8651 31.5853 14.8651 31.7139 14.993 31.8425Z" fill="white"/>
<path d="M47.6723 6.96562C47.6723 7.61075 47.8002 8.38447 47.8002 9.15604V10.8321C47.6723 11.7344 47.8002 12.6367 47.6723 13.539C47.6723 14.5699 47.6724 15.4723 47.5445 16.5032V17.922C47.5445 18.9529 47.6724 19.9838 47.5445 21.1455C47.4166 21.662 47.4166 22.1764 47.4166 22.8215C47.4166 23.7238 47.4166 24.6262 47.4166 25.3999V28.752C47.4166 29.1377 47.5445 29.3971 47.5445 29.7829V32.6184C47.5445 33.5207 47.5445 34.5516 47.6723 35.454C47.6723 35.7111 47.5445 36.0991 47.6723 36.3563C47.6723 37.0014 47.6723 37.6444 47.8002 38.4181C47.9281 39.3204 47.8002 40.3513 47.8002 41.2536C47.9281 42.0274 47.9281 42.8011 47.9281 43.5727V47.5699C47.9281 48.0864 47.9281 48.6008 47.9281 49.2459V50.4054C47.9281 51.1791 47.9281 52.0814 47.9281 52.9838V54.4026C47.9281 54.6598 47.9281 54.7884 47.8002 54.9191C47.6723 55.0477 47.6723 55.0477 47.6723 55.1763C47.6723 55.4335 47.5445 55.5621 47.6723 55.6928C47.6723 56.2094 47.4166 56.4666 47.1588 56.8523L46.006 58.0119C45.8781 58.269 45.6224 58.3976 45.4924 58.657C45.3646 58.9142 45.1089 59.0428 44.851 59.1735C44.851 59.3021 44.7232 59.3021 44.7232 59.3021C44.4675 59.6879 44.0818 59.9472 43.6982 60.0758C43.5704 60.2044 43.4425 60.2044 43.3147 60.2044C43.1868 60.333 43.059 60.2044 43.059 60.0758C42.9311 59.9472 42.9311 59.8186 42.6754 59.8186C42.4197 59.8186 42.034 59.9472 41.7783 60.0758C41.5226 60.2044 41.2648 60.2044 41.009 60.2044C40.2398 60.2044 39.4705 60.0758 38.7034 60.0758C38.1899 59.9472 37.6785 59.9472 37.1649 59.9472C36.7814 59.9472 36.3957 59.9472 36.0121 60.0758C35.7564 60.0758 35.4986 60.2044 35.2428 60.2044C34.6015 60.333 33.9622 60.333 33.3208 60.333C33.1929 60.333 33.0651 60.2044 32.9372 60.2044C32.5537 60.0758 32.168 60.0758 31.7844 60.0758C31.2709 59.9472 30.7595 59.9472 30.2459 59.9472C29.2209 59.9472 28.5796 59.4307 27.9403 58.7877C27.8124 58.6591 27.8124 58.5305 27.6846 58.5305C27.4289 58.2733 27.171 58.014 27.0432 57.7568C26.6596 57.2403 26.1461 56.5973 25.6347 56.0808C25.3789 55.8236 25.249 55.4356 25.249 55.0499C25.3768 54.0189 25.3768 52.988 25.3768 51.9571C25.3768 51.312 25.249 50.7976 25.249 50.2811C25.1211 49.636 25.1211 48.993 25.1211 48.3479V47.0598C24.9933 46.5432 24.9933 45.9002 24.9933 45.3837C24.9933 44.8672 24.9933 44.4814 24.9933 44.0956V43.0647C24.9933 42.5482 24.8654 41.9052 24.8654 41.2601V38.6817C24.8654 36.7485 24.8654 34.8153 24.7375 33.0106C24.7375 31.7225 24.8654 30.4323 24.8654 29.1442C24.8654 28.1133 24.7375 27.2109 24.7375 26.3086C24.8654 25.6635 24.8654 25.0205 24.8654 24.3754C24.9933 23.4731 24.9933 22.5708 25.1211 21.6684C25.1211 21.4113 25.1211 21.1519 25.1211 20.8947V18.4385C25.249 17.5362 25.1211 16.6339 25.1211 15.7316C25.1211 14.9579 25.1211 14.0556 25.1211 13.2818V11.7344C25.249 11.6058 25.249 11.3486 25.249 11.2179C25.3768 10.5727 25.5047 10.0584 25.5047 9.41324C25.6325 9.15604 25.6325 8.76811 25.6325 8.38232C25.6325 8.25373 25.5047 8.25373 25.5047 8.12513C25.249 7.99654 25.249 7.86794 25.119 7.6086C25.119 7.09208 25.119 6.4491 25.119 5.93257V4.51372C25.119 4.25653 25.2468 4.12794 25.3747 3.8686C25.7582 3.35207 26.2718 2.96628 26.6554 2.44976C27.0389 1.93323 27.5525 1.54744 27.936 1.03091C28.1917 0.645124 28.5774 0.514384 28.961 0.257192C29.6024 0.128596 30.2416 0.128596 31.0109 0.128596C32.2916 0.128596 33.7022 0.128596 34.985 0.128596H37.4206C38.062 -1.49012e-08 38.8313 0 39.4705 0C39.7263 0 39.8541 0.128596 39.9841 0.128596C40.7533 0.128596 41.3947 0.128596 42.1619 0.128596H43.059C43.7004 -1.49012e-08 44.0839 0.128596 44.3396 0.645124L45.1089 1.54744C45.3646 1.80463 45.6224 2.19256 45.7503 2.57835L46.5195 3.35207C46.7752 3.60926 47.0331 3.8686 47.1588 4.12579C47.4145 4.25439 47.5445 4.64232 47.5445 4.89951C47.6724 5.54678 47.6723 6.3205 47.6723 6.96562ZM39.9841 51.567C39.9841 50.9219 40.1119 50.1482 39.9841 49.5052V48.0864C39.9841 47.4413 39.9841 46.9269 39.9841 46.2817V43.4462C39.9841 42.1581 39.9841 40.8678 39.8562 39.7083C39.8562 39.1918 39.8562 38.806 39.7284 38.2895C39.7284 37.773 39.6005 37.2586 39.6005 36.7421V34.5516C39.6005 34.0351 39.4727 33.6493 39.4727 33.2635C39.4727 32.747 39.4727 32.104 39.4727 31.4589V29.5257C39.4727 28.8805 39.4727 28.2376 39.4727 27.5924V25.6592C39.4727 24.7569 39.6005 23.726 39.6005 22.8237V19.8552C39.7284 18.9529 39.7284 18.0506 39.7284 17.1483V16.1174C39.7284 15.6009 39.8562 14.9579 39.8562 14.4413C39.8562 13.9248 39.8562 13.4104 39.9841 13.0225C39.9841 12.2488 39.9841 11.4751 39.9841 10.7013V9.41324C40.1119 9.15604 39.9841 8.89671 39.9841 8.63952C37.5485 8.76811 35.115 9.0253 32.6794 8.76811C32.6794 8.89671 32.6794 9.0253 32.6794 9.1539V10.1848C32.5515 10.442 32.5515 10.7013 32.5515 10.9585V13.4083C32.6794 14.182 32.6794 14.9557 32.6794 15.858C32.6794 16.1152 32.6794 16.3746 32.6794 16.6318V19.4673C32.6794 20.3696 32.6794 21.1433 32.6794 22.0457V23.7217C32.6794 24.2382 32.6794 24.8812 32.5515 25.5263V27.7168C32.4237 27.9739 32.5515 28.3619 32.4237 28.6191C32.4237 29.2642 32.2958 30.0379 32.4237 30.6809C32.5515 31.969 32.5515 33.1306 32.6794 34.2902V35.1925C32.8072 35.9662 32.8072 36.7399 32.8072 37.6422C32.9351 38.416 32.9351 39.1897 32.9351 40.092C32.9351 40.7371 33.0629 41.5108 33.0629 42.1538C33.0629 42.9275 32.9351 43.5727 32.9351 44.2156C32.9351 44.7322 32.9351 45.2465 32.8072 45.6345C32.8072 46.2796 32.9351 46.9226 32.8072 47.5677C32.8072 48.47 32.9351 49.3723 33.0629 50.2747C33.0629 50.9198 33.0629 51.5628 32.9351 52.2079H33.3187C34.0879 52.2079 34.8572 52.2079 35.6264 52.3365C36.14 52.5937 36.6514 52.5937 37.2928 52.5937C37.8063 52.5937 38.3177 52.5937 38.7034 52.4651H39.217C39.4727 52.3365 39.7305 52.3365 39.9862 52.2079V51.567H39.9841Z" fill="white"/>
<path d="M60.8733 34.6802C60.7454 34.5516 60.6176 34.5516 60.4897 34.5516C59.9762 34.6802 59.4648 34.423 59.0791 34.2944C58.8234 34.2944 58.6934 34.2944 58.4377 34.1658C58.182 34.1658 57.9241 34.1658 57.6684 34.1658V34.811C57.7963 35.1968 57.7963 35.7133 57.7963 36.0991C57.7963 36.7442 57.6684 37.5179 57.6684 38.1609C57.6684 38.9346 57.5406 39.5797 57.4127 40.3513C57.4127 41.125 57.4127 41.8988 57.4127 42.6703C57.6684 43.4441 57.7984 44.0892 57.6684 44.6036C57.6684 45.5059 57.7963 46.2796 57.6684 47.1819C57.6684 47.5677 57.6684 48.0842 57.6684 48.6008L57.5406 49.5031C57.2849 50.6626 57.4127 51.6935 57.4127 52.7266C57.4127 53.2431 57.5406 53.8861 57.5406 54.4026C57.6684 54.9191 57.6684 55.4335 57.6684 55.95V57.6261C57.6684 58.0119 57.6684 58.3998 57.6684 58.9142V59.3C57.6684 59.5572 57.6684 59.6857 57.5406 59.8165C57.5406 59.9451 57.4127 60.0737 57.2849 60.0737H56.3878C56.2599 60.0737 56.0042 60.0737 55.7464 60.2023C55.3628 60.3309 54.8493 60.3309 54.3357 60.3309C53.8222 60.3309 53.4386 60.2023 52.9272 60.2023C52.2858 60.0737 51.6465 60.0737 51.0051 60.0737H50.7494C50.3659 60.0737 50.108 59.8165 50.108 59.5571C50.108 59.0406 50.108 58.6548 50.108 58.1383V56.5909C50.108 56.0743 49.9802 55.56 49.8523 55.0434C49.8523 54.3983 49.7245 53.7553 49.7245 53.1102C49.5966 51.8221 49.7245 50.6604 49.7245 49.3723C49.7245 48.9865 49.8523 48.5986 49.8523 48.0842C49.9802 47.827 49.9802 47.4391 49.9802 47.0533C49.9802 45.8938 49.9802 44.8629 49.8523 43.7013C49.8523 42.6703 49.8523 41.6394 49.8523 40.6085V39.3204C49.8523 38.6753 49.7245 37.9016 49.7245 37.2586C49.7245 36.8728 49.5966 36.4849 49.5966 36.0991C49.5966 35.5825 49.5966 35.0682 49.5966 34.5516V32.747C49.4687 32.1019 49.4688 31.3282 49.4688 30.6852C49.4688 30.2994 49.4688 29.9115 49.4688 29.3971V27.3353C49.4688 26.4329 49.5966 25.402 49.5966 24.4997C49.7245 23.8546 49.7245 23.2116 49.7245 22.4379V21.1498C49.7245 20.8926 49.7245 20.6333 49.8523 20.2475C49.9802 19.6023 49.9802 18.9594 49.9802 18.1856V14.0556C49.8523 13.539 49.8523 13.0246 49.8523 12.3795C49.8523 11.9937 49.7245 11.6058 49.7245 11.22V9.54398C49.7245 9.15819 49.7245 8.77026 49.7245 8.38447V7.73935C49.8523 6.96563 49.9802 6.32051 49.8523 5.54893C49.8523 5.29174 49.9802 5.16314 49.9802 5.0324V3.22777C49.9802 2.84198 50.108 2.58265 50.2359 2.19686C50.2359 2.06826 50.2359 1.93966 50.3637 1.93966C50.7473 1.55388 51.133 1.42314 51.5165 1.42314C51.9001 1.42314 52.2858 1.42314 52.5415 1.42314H53.5665C54.3357 1.55173 55.105 1.42314 55.8721 1.29454C56.5135 1.16594 57.0249 1.16594 57.5384 1.03735C58.052 1.03735 58.6913 1.03735 59.2048 1.03735L59.7183 0.908752C60.6154 0.908752 61.5126 0.908752 62.4097 0.908752H64.4596C64.8453 0.908752 65.2288 0.908752 65.4845 0.908752H66.2538C66.8952 0.908752 67.5345 0.908752 68.1759 0.908752H68.5615C68.8173 0.908752 68.9451 1.03735 68.9451 1.29454L69.073 1.42314L69.8422 2.19686C70.0979 2.71338 70.4836 2.97058 70.8672 3.48496C71.1229 3.87075 71.5086 4.25868 71.8921 4.64447C72.02 4.77307 72.02 4.90166 72.02 5.161C72.1478 6.06331 72.1478 6.83703 72.02 7.73935V9.28679C72.02 10.1891 72.02 10.9628 72.02 11.8651V14.8293C72.02 15.4744 72.1478 16.2481 72.1478 16.8911C72.1478 17.922 72.02 18.9529 72.02 19.9838C72.02 20.629 72.02 21.1433 72.02 21.7885V23.4645C72.02 23.7217 72.1478 23.8503 72.1478 23.981C72.1478 25.0119 72.2757 26.0429 72.2757 26.9452C72.2757 27.7189 72.1478 28.364 72.02 29.007C72.02 29.3928 72.02 29.6521 72.02 30.0379C72.1478 30.4237 72.1478 30.683 71.8921 30.9402C71.7643 31.0688 71.6364 31.1974 71.3786 31.4568L70.6093 32.2305C70.2236 32.6163 69.8401 33.0042 69.5844 33.39C69.3287 33.5186 68.943 33.7758 68.6873 34.0351C68.5594 34.1637 68.4316 34.4209 68.5594 34.6802C68.5594 34.9374 68.5594 35.3254 68.6873 35.5825C68.8151 36.3563 68.8151 37.0014 68.943 37.773L69.3287 39.9634C69.4565 40.3492 69.4565 40.6085 69.5844 40.9943V41.768C69.7122 42.6703 69.9701 43.4441 69.9701 44.3464C70.0979 44.9915 70.0979 45.6345 70.2258 46.4082C70.2258 47.3105 70.3536 48.2128 70.6115 48.9865C70.8672 49.7603 70.995 50.6626 71.125 51.4363C71.125 51.8221 71.2529 52.3386 71.3807 52.8551V53.5003C71.5086 54.1454 71.5086 54.7884 71.6364 55.3049C71.7643 56.0786 71.8921 56.8523 72.15 57.6261C72.2778 58.1426 72.2778 58.657 72.2778 59.1735C72.2778 59.3021 72.2778 59.4307 72.4057 59.5593C72.6614 59.8165 72.6614 60.0758 72.5335 60.333C72.5335 60.5902 72.2778 60.5902 72.02 60.7188H69.8422C69.4565 60.7188 69.073 60.8474 68.6894 60.8474C68.048 60.8474 67.4087 60.8474 66.7673 60.7188L64.9731 60.333C64.7174 60.333 64.4596 60.0758 64.5896 59.8165C64.5896 59.5593 64.4617 59.3 64.4617 59.0428C64.206 57.8833 63.9482 56.8523 63.8203 55.8193C63.8203 55.0456 63.6925 54.2718 63.5646 53.6289C63.3089 52.7266 63.1789 51.6956 63.0511 50.6647C62.9232 50.0196 62.7953 49.3766 62.6654 48.7315L62.2818 46.7983C62.154 46.1531 62.0261 45.3794 62.0261 44.7364C61.7704 43.8341 61.6425 42.8032 61.5126 41.9009C61.3847 40.7414 61.2568 39.4511 61.3847 38.2916C61.3847 38.0344 61.3847 37.7751 61.2568 37.5179C61.2568 37.0014 61.129 36.487 61.129 35.9705C61.0011 35.5825 61.0011 35.066 60.8733 34.6802ZM57.2849 27.0738C57.6684 26.9452 58.0541 26.9452 58.3098 26.9452C59.5905 26.8166 60.8733 26.8166 62.0261 26.9452H63.4367C63.8203 26.9452 64.0781 26.8166 64.4617 26.688V26.5594C64.3339 25.2713 64.4617 23.981 64.7174 22.6929V21.9192C64.7174 21.0169 64.7174 20.1146 64.7174 19.2123V17.1504C64.7174 16.7647 64.5896 16.2481 64.5896 15.7316V11.6058C64.5896 10.7035 64.7174 9.80117 64.7174 8.89886C64.7174 8.89886 64.7174 8.77026 64.5896 8.64166C63.9482 8.77026 63.4367 8.77026 62.9232 8.77026H61.129C60.2319 8.77026 59.4626 8.77026 58.6934 8.64166C58.3098 8.51307 57.7963 8.51307 57.4127 8.51307H57.157C57.157 8.64166 57.157 8.64166 57.157 8.64166V11.6058C57.157 12.3795 57.2849 13.1532 57.2849 14.0556V17.1504C57.2849 18.0528 57.157 18.8265 57.157 19.7288V22.3071C57.157 23.3381 57.0292 24.4997 57.157 25.5306C57.157 26.0429 57.157 26.5594 57.2849 27.0738Z" fill="white"/>
<path d="M89.8363 10.1869C89.5806 10.5727 89.7084 10.9607 89.7084 11.3464C89.7084 11.863 89.7084 12.5059 89.7084 13.0225V14.9557C89.7084 15.2129 89.8363 15.4722 89.8363 15.858C89.9641 16.6317 89.9641 17.2769 89.8363 18.0484C89.8363 18.6936 89.8363 19.3365 89.7084 19.9817C89.7084 20.7554 89.5806 21.4005 89.5806 22.1721C89.5806 22.6886 89.5806 23.203 89.5806 23.7195V26.0407C89.4527 27.0716 89.4527 28.1025 89.4527 29.1334V33.9022C89.4527 34.8045 89.4527 35.8354 89.4527 36.7377V38.1566C89.3249 38.6731 89.3249 39.3161 89.3249 39.9612C89.3249 40.7349 89.4527 41.5086 89.4527 42.2802C89.4527 42.9253 89.4527 43.4397 89.4527 44.0849V46.1467C89.4527 47.4348 89.3249 48.725 89.4527 50.0131V50.9155C89.7084 52.075 89.7084 53.2366 89.7084 54.2675V57.2317C89.8363 57.7482 89.8363 58.3912 89.8363 58.9077C89.8363 59.1649 89.8363 59.4242 89.7084 59.6814C89.7084 59.81 89.8363 59.81 89.9641 59.9386C90.2198 60.1958 90.2198 60.5837 90.092 60.9695C89.9641 61.0981 89.7063 61.0981 89.5784 61.0981H88.0399C87.015 61.0981 85.99 61.0981 84.9651 61.0981L84.0679 61.2267C83.6844 61.2267 83.2987 61.2267 82.9151 61.0981C82.6594 61.0981 82.4016 60.8409 82.4016 60.5816C82.4016 60.0651 82.5294 59.6793 82.5294 59.2935V57.6175C82.5294 56.7151 82.4016 55.9414 82.4016 55.1677C82.4016 54.5226 82.5294 54.0082 82.5294 53.3631C82.5294 52.8465 82.6573 52.2036 82.6573 51.5584C82.6573 50.7847 82.6573 50.011 82.6573 49.368V46.1445C82.6573 45.7587 82.6573 45.2422 82.6573 44.7257V43.1783C82.6573 42.4045 82.6573 41.5022 82.4016 40.7285V39.8262C82.4016 39.1811 82.4016 38.4073 82.2737 37.7644C82.2737 37.2478 82.1459 36.7335 82.1459 36.2169V34.9288C82.1459 34.0265 82.1459 33.2528 82.1459 32.3505V28.2247C82.1459 27.451 82.1459 26.6772 82.1459 25.9035V24.0989C82.1459 23.4538 82.2737 22.8108 82.1459 22.1657V20.361C82.1459 19.8445 82.1459 19.3301 82.1459 18.8136V17.5255C82.018 17.1397 82.018 16.7518 82.018 16.2374C82.018 15.7209 81.8902 15.2065 81.8902 14.6899C81.8902 14.1734 81.8902 13.659 81.8902 13.1425V11.3379C82.018 10.9521 82.018 10.4356 82.018 10.0498C81.7623 10.0498 81.3766 9.92117 81.1209 9.92117H77.7882C77.2747 9.92117 76.6354 9.79257 76.1218 9.66398C75.7383 9.66398 75.4804 9.66398 75.0969 9.53538C74.8412 9.53538 74.7112 9.53538 74.5833 9.40678C74.4555 9.40678 74.3276 9.27819 74.3276 9.14959C74.1998 8.7638 74.1998 8.37587 74.1998 7.99008C74.3276 7.34496 74.4555 6.83057 74.4555 6.31405C74.5833 5.79752 74.7112 5.41173 74.7112 5.02594C74.839 4.64016 74.839 4.38082 74.9669 4.12363L75.3505 3.09272C75.3505 2.70693 75.4783 2.44759 75.4783 2.0618L75.734 1.67602C75.734 1.67602 75.8619 1.54742 75.9897 1.67602H76.759C77.0147 1.54742 77.4004 1.54742 77.6561 1.54742C78.2975 1.54742 78.8089 1.41882 79.4503 1.54742C79.706 1.54742 79.9638 1.67602 80.2195 1.67602C80.9888 1.80461 81.8859 1.93321 82.6552 1.93321C83.4244 1.93321 84.1937 1.93321 84.8329 1.93321H86.2436C86.3714 1.93321 86.6272 1.80461 86.885 1.80461H89.1906C89.4463 1.80461 89.7042 1.67602 89.9599 1.67602H90.6013C91.1148 1.67602 91.6262 1.54742 92.2676 1.54742C93.0369 1.54742 93.934 1.41882 94.8311 1.41882C95.2168 1.41882 95.4725 1.54742 95.8561 1.67602C96.2396 1.93321 96.3696 2.44974 95.9839 2.83552C95.9839 2.83552 95.8561 2.83552 95.8561 2.96412C95.9839 3.48065 95.9839 3.99503 96.1118 4.51156C96.3675 5.41387 96.4975 6.44479 96.7532 7.3471C96.881 7.60429 96.881 7.99223 97.0089 8.37801L97.1367 8.89454C97.2646 9.15173 97.2646 9.28033 97.1367 9.41107C97.1367 9.66826 97.0089 9.79686 96.751 9.9276C96.1096 10.0562 95.5982 10.0562 94.9568 10.0562C94.0597 9.9276 93.1626 10.0562 92.2655 10.0562C91.752 10.0562 91.2405 10.0562 90.727 10.1848C90.4777 10.1869 90.0941 10.1869 89.8363 10.1869Z" fill="white"/>
<path d="M106.753 28.7498L106.881 28.6212C107.265 28.2354 107.651 27.9761 108.162 27.8475C108.931 27.4617 109.57 27.0738 110.084 26.5594C110.468 26.3022 110.853 26.0429 111.237 25.9143C112.134 25.5285 112.775 24.8834 113.542 24.4954C113.67 24.3668 113.798 24.2382 114.056 24.2382C114.184 24.1096 114.312 23.981 114.312 23.8524C114.184 23.4667 114.184 23.0787 114.184 22.6929C114.184 22.1764 114.056 21.5334 114.056 21.0169C113.928 19.7288 113.928 18.5671 113.928 17.279C114.056 16.2481 114.184 15.2172 114.184 14.0556C114.184 13.539 114.184 12.8961 114.184 12.2509V10.0584C114.184 9.02746 114.056 7.86795 113.928 6.83489V4.38728C113.8 3.74216 113.8 3.09918 113.8 2.58265C113.8 2.19686 113.8 1.80893 113.928 1.42314C114.056 1.03735 114.312 1.03735 114.697 1.03735C114.825 1.16595 114.825 1.03735 114.953 1.03735C115.467 0.908756 116.106 0.78016 116.619 0.78016H118.158C118.799 0.78016 119.439 0.78016 119.952 1.03735C120.594 1.16595 120.977 1.55388 121.233 2.19686C121.489 2.97058 121.616 3.6157 121.616 4.38728C121.489 5.161 121.616 5.80612 121.616 6.5777C121.616 7.34928 121.744 8.25374 121.744 9.02746C121.744 10.4463 121.872 11.7344 121.872 13.0247C121.872 14.0556 121.872 15.2151 122 16.2481V17.7934C122 18.0506 122 18.4385 121.872 18.6957V20.7576C121.872 21.4027 121.744 22.0457 121.744 22.8194C121.744 23.5931 121.744 24.3668 121.744 25.0098L121.489 27.5882C121.489 28.6191 121.489 29.5214 121.489 30.5523V32.4855C121.489 33.0021 121.616 33.645 121.616 34.1616V34.5474C121.616 34.9331 121.744 35.3211 121.744 35.8355C121.872 36.0927 121.872 36.352 121.744 36.6092C121.744 36.7378 121.744 36.7378 121.616 36.8664C121.489 36.995 121.489 37.1236 121.489 37.2522C121.489 37.8973 121.489 38.4117 121.361 38.9282C121.361 39.8305 121.361 40.7328 121.361 41.6351V42.9232C121.489 43.309 121.489 43.8256 121.489 44.2114C121.489 44.9851 121.489 45.6302 121.616 46.4039C121.616 47.3062 121.616 48.2085 121.616 49.1109V51.8178C121.616 52.3343 121.616 52.8487 121.616 53.3653V53.8818C121.744 54.0104 121.744 54.139 121.744 54.2676L121.616 55.5557C121.616 56.2008 121.744 56.8438 121.616 57.4889C121.616 58.134 121.616 58.777 121.361 59.2935C121.361 59.5507 121.233 59.6793 120.975 59.8101C120.719 60.0673 120.591 60.1958 120.334 60.3266C120.078 60.3266 119.95 60.4552 119.692 60.4552C119.309 60.4552 118.923 60.4552 118.539 60.3266C118.284 60.3266 118.026 60.3266 117.898 60.3266H115.976C115.462 60.198 114.951 59.8101 114.695 59.4243C114.567 59.2957 114.567 59.1671 114.567 59.1671C114.312 58.7813 114.182 58.3934 114.182 57.879V56.5909C114.054 55.6885 114.054 54.7862 114.054 53.8839V52.0793C114.054 50.7912 114.182 49.5009 114.182 48.2128C114.182 47.4391 114.31 46.6654 114.437 45.8917C114.437 45.5059 114.437 45.118 114.437 44.7322V42.411C114.437 41.7659 114.31 41.1229 114.31 40.4778C114.437 39.8327 114.182 39.0589 114.182 38.416C114.054 37.7708 114.054 37.2564 114.054 36.6113C114.054 36.0948 114.054 35.5804 114.054 35.0639V32.8735C114.054 32.8735 114.054 32.7449 114.054 32.6163L113.54 33.0021C113.285 33.2593 112.899 33.3878 112.515 33.6472C112.002 34.033 111.618 34.4209 110.977 34.6781C110.463 34.9353 109.952 35.3232 109.566 35.709C108.925 36.0948 108.413 36.4827 107.9 36.8685C107.516 37.1257 107.131 37.385 106.747 37.6422V38.5446C106.875 38.9303 106.875 39.4469 106.875 39.9634C107.003 40.7371 107.003 41.3822 107.003 42.1538V46.5368C107.003 47.6963 106.875 48.858 106.747 49.8889C106.619 50.2747 106.619 50.6626 106.619 51.0484V53.6267C106.619 54.7862 106.747 55.8172 106.747 56.8502C106.747 56.9788 106.747 56.9788 106.875 56.9788C107.258 57.1074 107.388 57.3646 107.516 57.7525C107.516 58.3976 107.388 58.912 107.261 59.4286C107.261 59.8143 107.133 59.9451 107.005 60.2023C106.749 60.5881 106.363 60.7188 105.98 60.7188C105.211 60.5902 104.441 60.4616 103.674 60.4616C103.419 60.333 103.161 60.333 102.905 60.333C102.391 60.333 101.88 60.333 101.367 60.333H100.597C100.342 60.333 100.212 60.0758 100.084 59.8165C99.828 59.5593 99.698 59.3 99.5702 58.9142L99.4423 58.3976C99.4423 57.6239 99.4423 56.9788 99.5702 56.3358C99.698 55.5621 99.698 54.917 99.698 54.1454C99.5702 53.2431 99.4423 52.3408 99.4423 51.4385V48.9887C99.4423 47.5699 99.3145 46.0246 99.3145 44.6057V42.4153C99.3145 41.513 99.3145 40.7393 99.3145 39.8369V37.13C99.3145 36.7442 99.3145 36.2277 99.3145 35.7112V34.9374C99.3145 34.1637 99.1866 33.2614 99.1866 32.4877V29.9093C99.1866 29.7807 99.3145 29.5235 99.3145 29.3928V28.1047C99.3145 27.4596 99.3145 26.8166 99.3145 26.0429V24.1096C99.1866 23.3359 99.1866 22.4336 99.1866 21.6599C99.0588 20.629 99.0587 19.4673 98.9309 18.4364C98.803 18.0506 98.803 17.6627 98.803 17.2769C98.803 16.7604 98.803 16.246 98.9309 15.7295V14.3106C98.9309 13.9248 99.0588 13.5369 99.1866 13.1511C99.3145 12.3774 99.3145 11.4751 99.1866 10.7013C99.1866 10.0562 99.1866 9.41325 99.1866 8.76812V7.09209C99.1866 6.57556 99.1866 6.06117 99.1866 5.54465V3.09703C99.1866 2.58051 99.3145 2.19472 99.5702 1.67819C99.5702 1.421 99.8259 1.2924 100.212 1.16166C100.597 0.904469 101.109 0.904469 101.622 0.904469C102.006 0.775873 102.519 0.775873 102.903 0.775873C103.8 0.775873 104.569 0.647277 105.338 0.775873C105.724 0.775873 106.108 1.03307 106.491 1.16166C106.747 1.29026 107.005 1.54745 107.005 1.80679C107.133 2.19257 107.133 2.45191 107.133 2.8377C107.133 3.74001 107.133 4.77093 107.005 5.80184C107.005 6.57556 106.877 7.34928 106.877 8.25159C106.749 9.79903 106.749 11.3443 106.877 12.8918V14.0513C106.877 14.6964 106.877 15.3394 106.749 15.9845C106.749 16.6296 106.621 17.4033 106.621 18.0463C106.621 18.9486 106.621 19.851 106.493 20.6247V22.0435C106.366 22.6886 106.366 23.203 106.366 23.7196C106.366 23.9768 106.493 24.1054 106.493 24.3647C106.366 25.1384 106.493 25.9121 106.621 26.6858C106.621 27.2024 106.621 27.7168 106.749 28.2333V28.7498H106.753Z" fill="white"/>
<path d="M3.40945 87.0403C3.53731 87.0403 3.66303 86.976 3.72696 86.976C3.98053 86.976 4.17018 87.0403 4.42376 87.0403C4.80519 87.0403 5.05876 87.1046 5.44019 87.1046C5.56805 87.1046 5.7577 87.1046 5.94735 87.0403C5.94735 86.976 6.01127 86.976 6.137 86.9117V86.6545C6.137 86.0737 6.137 85.495 6.137 84.9785V84.3333C6.137 84.2047 6.137 84.0761 6.137 83.8832V83.0452C6.137 82.5951 6.137 82.1429 6.137 81.7571V81.5642C6.07307 81.5642 6.00914 81.5642 5.94735 81.5642H5.69377C5.50412 81.4999 5.31234 81.4356 5.25054 81.2427C5.18662 81.0498 5.18662 80.8569 5.12269 80.6619C5.05876 80.4047 4.99484 80.1454 4.99484 79.8882C4.93091 79.6953 4.86698 79.5667 4.80519 79.5024C4.80519 79.3738 4.74126 79.2452 4.67733 79.1166C4.67733 78.988 4.61341 78.9237 4.61341 78.7951C4.67733 78.7951 4.61341 78.7308 4.54948 78.6022C4.54948 78.5379 4.54948 78.345 4.80306 78.2807H5.18449C5.43806 78.2164 5.69164 78.2165 5.94522 78.2165C6.26272 78.2165 6.58022 78.1521 6.89773 78.1521C7.08738 78.1521 7.27916 78.2164 7.46881 78.2807C7.72238 78.345 7.97596 78.4093 8.22954 78.345H8.86454C9.11812 78.345 9.24597 78.5379 9.18204 78.7308C9.18204 78.7951 9.18204 78.7951 9.11812 78.9237C9.11812 78.988 9.11812 78.988 9.11812 79.1166V80.1475C9.11812 80.2761 9.05419 80.4047 9.05419 80.5976C9.05419 80.7262 9.05419 80.9191 9.05419 81.1141V82.2737C9.05419 82.7259 8.92634 83.2403 8.99026 83.7568V85.3042C8.99026 85.4971 8.99026 85.7543 9.05419 86.0136C9.05419 86.3994 9.11812 86.7874 9.11812 87.1089V88.0755C9.11812 88.2041 9.11812 88.2684 9.11812 88.4613L8.92847 88.5899C8.86454 88.7828 8.67489 88.847 8.61096 88.9756C8.42131 89.1042 8.29346 89.2328 8.16774 89.3614C7.97809 89.49 7.91416 89.6186 7.78631 89.7472C7.72238 89.8115 7.59666 89.8758 7.53273 89.8758C7.21523 89.8758 6.89773 89.9401 6.58022 90.0044H6.137C5.94735 90.0044 5.75557 89.9401 5.62984 89.9401H4.99484C4.74126 89.9401 4.55161 89.8758 4.35983 89.8758H3.47125C3.21767 89.8758 3.02802 89.8758 2.77445 89.9401C2.64659 89.9401 2.45694 89.9401 2.26729 89.9401C2.13944 90.0687 2.01372 90.0687 1.88586 89.9401C1.82194 89.9401 1.69621 89.8115 1.56836 89.6829H1.44051C1.25086 89.49 1.123 89.2971 0.933354 89.1664C0.805501 89.0378 0.679778 88.9735 0.615851 88.8449C0.615851 88.7806 0.551924 88.7806 0.487997 88.7806C0.424071 88.7806 0.298348 88.7163 0.298348 88.5234C0.234421 88.3948 0.234421 88.2662 0.298348 88.0733V87.4925C0.298348 87.2353 0.234421 86.976 0.234421 86.7188V86.4616C0.170494 86.2044 0.170494 86.0115 0.170494 85.8165C0.170494 85.5593 0.106567 85.2999 0.106567 85.1071C0.106567 84.7213 0.106567 84.3333 0.170494 84.0118V83.3667C0.170494 83.1738 0.234421 83.1095 0.234421 82.9809C0.234421 82.6594 0.234421 82.3358 0.234421 82.0143V80.6598C0.234421 80.4026 0.234421 80.274 0.298348 80.1432V78.9837C0.298348 78.6622 0.362275 78.3386 0.362275 78.0171C0.362275 77.4363 0.298348 76.9219 0.362275 76.3411C0.362275 76.0196 0.362275 75.696 0.362275 75.3102V74.9887C0.362275 74.6029 0.362275 74.2793 0.426201 73.8935C0.426201 73.4413 0.490128 72.9269 0.426201 72.4103C0.426201 72.2174 0.426201 72.0246 0.426201 71.8295V71.1201C0.362275 70.6679 0.298348 70.0892 0.362275 69.5727V68.7346C0.362275 68.606 0.426201 68.4774 0.426201 68.3489C0.490128 68.3489 0.554055 68.3488 0.615851 68.2845C0.677647 68.2203 0.743705 68.0917 0.805501 68.0917C1.05908 67.8345 1.37658 67.5108 1.56623 67.2536C1.63016 67.1893 1.75588 67.0607 1.81981 66.9321L2.07338 66.8679C2.13731 66.9322 2.20124 66.8679 2.26516 66.8679H3.27947C3.6609 66.8679 4.10412 66.8679 4.48555 66.9321C4.61341 66.9321 4.80306 66.9321 4.86698 66.9321H5.12056C5.31021 66.9321 5.56379 66.9322 5.75557 66.8679C5.94522 66.8036 6.137 66.8036 6.39057 66.8036C6.58022 66.8036 6.70808 66.8036 6.89773 66.8679C7.08738 66.8679 7.27916 66.9321 7.53273 66.9321C7.59666 66.9321 7.66059 66.9322 7.72238 66.9965C7.85024 67.1893 8.03989 67.3179 8.22954 67.4487C8.22954 67.513 8.35739 67.5773 8.41918 67.6416C8.48311 67.7059 8.60883 67.8345 8.67276 67.8988L8.92634 68.0917C8.99026 68.156 9.11599 68.3488 9.11599 68.4131C9.05206 68.6703 9.05206 68.8654 9.05206 69.1226C8.98813 69.2512 8.98813 69.4441 8.98813 69.5727C8.98813 69.9584 8.98813 70.2178 9.05206 70.6036C9.05206 70.7965 9.11599 70.9894 9.11599 71.2487V71.5059C9.11599 71.6988 9.11599 71.8917 9.11599 72.151V72.5368C9.11599 72.6654 8.99026 72.7297 8.86241 72.794C8.73456 72.794 8.67276 72.794 8.54491 72.8583C8.41705 72.8583 8.35526 72.8583 8.2274 72.8583H8.09955C7.9717 72.9226 7.78205 72.9869 7.5924 72.9869H7.14917C6.95952 72.9869 6.76774 72.8583 6.57809 72.794C6.45024 72.794 6.38844 72.794 6.38844 72.7297C6.13487 72.6654 6.07094 72.4725 6.07094 72.2796C6.07094 72.0867 6.07094 72.0224 6.13487 71.8938V71.4416C6.13487 71.0558 6.13487 70.6679 6.13487 70.2178V70.0249C5.88129 69.9606 5.62771 69.9606 5.37414 69.9606C5.12056 69.9606 4.80306 69.9606 4.54948 69.9606H4.42163C4.2959 69.8963 4.10412 69.8963 3.9784 69.832C3.85268 69.7034 3.6609 69.7034 3.47125 69.7034H3.34339C3.27947 69.7034 3.27947 69.7034 3.27947 69.832V70.7343C3.27947 71.2508 3.27947 71.7009 3.21554 72.1531V72.9912C3.15161 73.377 3.21554 73.8292 3.21554 74.2793C3.21554 74.4722 3.21554 74.7294 3.21554 74.9887V76.0839C3.21554 76.4075 3.27947 76.729 3.27947 77.0505C3.34339 77.4363 3.34339 77.8242 3.34339 78.1457V78.8551C3.34339 78.9837 3.34339 79.1788 3.34339 79.3074V80.1454C3.34339 80.4669 3.34339 80.8548 3.34339 81.1763V81.6264C3.34339 81.8193 3.27947 81.9479 3.27947 82.0786V82.2715C3.34339 82.5287 3.34339 82.7237 3.34339 82.9809C3.34339 83.3046 3.40732 83.6261 3.40732 83.9475C3.40732 84.3333 3.40732 84.7856 3.40732 85.1713V86.2666C3.40732 86.4595 3.40732 86.6523 3.40732 86.9117V87.0403H3.40945Z" fill="white"/>
<path d="M32.5344 84.3333V84.269C32.4704 84.269 32.4065 84.3333 32.4065 84.3976C32.089 84.6548 31.8994 84.7834 31.5819 84.8499C31.5179 85.0428 31.3283 85.0428 31.2004 85.1714C31.1365 85.1714 31.1365 85.2357 31.1365 85.3L31.0086 86.138C30.8808 86.3309 30.8808 86.4595 30.8808 86.6545V87.5568V88.9114V89.04V89.3615C30.9447 89.4901 30.8808 89.49 30.8808 89.5543C30.8169 89.6186 30.8808 89.6829 30.8169 89.8758C30.8169 89.9401 30.7529 89.9401 30.7529 89.9401C30.7529 89.9401 30.6251 90.0044 30.5633 90.0044C30.2458 90.0687 29.9283 90.0687 29.6747 90.0687H29.1036C28.9118 90.133 28.6604 90.133 28.4686 90.133H28.0254C27.8357 90.133 27.7079 90.0044 27.7079 89.9401V89.6829C27.7718 89.4258 27.7718 89.2307 27.7718 88.9735C27.7718 88.652 27.8357 88.5213 27.8997 88.2641C28.0275 88.0712 28.0275 87.7476 28.0275 87.4904C28.0275 87.4261 28.0275 87.3618 28.0914 87.2332C28.0914 87.1046 28.1554 86.976 28.1554 86.781C28.1554 86.6524 28.1554 86.4595 28.1554 86.3309V86.138L28.2193 85.8808L28.2832 84.8499C28.2832 84.5927 28.2832 84.3333 28.4111 84.1404V83.4953V82.7216C28.4111 82.5287 28.475 82.4644 28.475 82.2051C28.475 82.0122 28.475 81.7528 28.5389 81.5599C28.6029 81.2385 28.6029 80.9791 28.6668 80.7219C28.6668 80.4647 28.8564 80.2054 28.8564 79.8839C28.9204 79.6267 28.9843 79.3674 28.9843 78.9816V78.5294V77.627C28.9843 77.2413 28.9843 77.0462 29.0482 76.789C29.0482 76.5318 29.1121 76.4032 29.1121 76.2082C29.2379 76.0796 29.3018 75.951 29.3018 75.6917L29.4296 74.6608V74.0156L29.5554 72.5968C29.5554 72.5325 29.6832 72.2753 29.6832 72.1446V71.6923C29.7472 71.2422 29.7472 70.9186 29.875 70.4685V69.8877L30.0007 69.0497C30.1286 68.7282 30.1925 68.4689 30.2543 68.1474C30.2543 68.0188 30.2543 67.8237 30.3182 67.7616L30.3822 67.3093C30.4461 67.1807 30.6357 67.0522 30.6997 66.9236C30.7636 66.9236 30.8275 66.9236 30.8893 66.8593H31.0172H32.0954H32.349H33.2376C33.2376 66.8593 33.2376 66.9236 33.3015 66.9236C33.3654 67.0522 33.3654 67.1807 33.3654 67.3093C33.4293 67.4379 33.4293 67.6308 33.5551 67.7616C33.619 67.8902 33.619 68.1474 33.619 68.2781L33.7468 69.1804C33.7468 69.309 33.7468 69.4376 33.8108 69.5662C33.8108 69.6948 33.8747 69.952 33.8747 70.147L34.1283 71.1136C34.1922 71.2422 34.1922 71.4994 34.1922 71.6945V72.6611V73.4348C34.3201 73.7563 34.5097 74.0156 34.5736 74.4014C34.6376 74.5943 34.6994 74.8537 34.6994 75.1751L34.7633 76.0132C34.7633 76.0775 34.7633 76.1418 34.8911 76.3347V76.7204V77.4299C34.8911 77.7514 34.8911 78.0107 34.9551 78.2679V78.3965C34.9551 78.6537 34.9551 78.8466 35.019 79.1059V79.9439C35.0829 80.2011 35.0829 80.3962 35.1468 80.6533V80.9105L35.2747 81.4271C35.2747 81.6843 35.3386 81.8793 35.3386 82.1365C35.3386 82.458 35.4665 82.8459 35.5304 83.1674C35.5304 83.4246 35.5304 83.7482 35.5943 84.0054C35.5943 84.134 35.7222 84.2626 35.7222 84.3912C35.7222 84.4555 35.7222 84.6484 35.7861 84.777C35.7861 85.0342 35.85 85.1628 35.85 85.4221C35.85 85.5507 35.85 85.6793 35.914 85.8743C35.914 86.1315 35.9779 86.3909 36.1036 86.5838C36.1675 86.9053 36.1675 87.2932 36.1675 87.679V88.1955C36.1675 88.2598 36.1675 88.3241 36.2315 88.3884C36.2315 88.5813 36.2954 88.7099 36.2954 88.9692V89.5501C36.2954 89.6144 36.2315 89.6787 36.2315 89.8073C36.1675 89.8073 36.1675 89.8072 36.1675 89.8715C35.9779 89.9358 35.914 89.9358 35.85 89.9358H35.279C35.1511 89.9358 35.0254 89.9358 35.0254 89.8715L34.5822 89.8073C34.2647 89.8716 34.0111 89.8715 33.6296 89.8715C33.5657 89.8715 33.3761 89.8716 33.3121 89.8073C33.2482 89.6787 33.2482 89.6787 33.2482 89.6144V89.5501C33.1843 89.2286 33.1204 88.9692 32.9946 88.6477C32.9307 88.3263 32.9307 87.874 32.8689 87.5525L32.805 86.9074L32.7411 86.4552C32.6771 86.198 32.6771 85.9386 32.5514 85.8743V85.4221V84.7127V84.3333H32.5344ZM31.2644 81.5621C31.4561 81.3692 31.5819 81.3692 31.7076 81.2406L31.9612 81.112C32.1508 80.9834 32.4044 80.9191 32.4683 80.8548C32.5322 80.8548 32.5322 80.8548 32.5322 80.7905C32.5322 80.5976 32.4683 80.4047 32.4683 80.2097L32.4044 79.436C32.3405 78.7908 32.3405 78.2765 32.2765 77.6956C32.2765 77.2434 32.2765 76.8576 32.1487 76.4718V75.7624L32.0208 75.1173C32.0208 75.053 32.0208 74.9244 31.9569 74.8601V75.1173C31.9569 75.2459 31.9569 75.3745 31.893 75.4388V76.1482C31.829 76.4054 31.7012 76.729 31.7012 76.8576C31.7012 77.1791 31.5733 77.6313 31.5733 77.9528V78.9837C31.5733 79.2409 31.5094 79.5003 31.5094 79.8218C31.5094 79.9504 31.4455 80.0789 31.4455 80.3383V80.5955C31.2644 80.8527 31.3283 81.2406 31.2644 81.5621Z" fill="white"/>
<path d="M63.1789 75.8245C62.9253 76.2103 62.7357 76.5983 62.6078 76.984C62.5439 77.3055 62.3542 77.5649 62.2264 77.8864C62.2264 78.0149 62.1625 78.1435 62.0985 78.2078C61.9707 78.465 61.9089 78.7887 61.845 79.0459C61.781 79.2388 61.781 79.3673 61.7171 79.6267C61.7171 79.8196 61.5275 80.0125 61.3996 80.2718C61.3996 80.3361 61.3357 80.4004 61.21 80.529C61.146 80.529 61.146 80.5933 61.0821 80.5933H60.8285C60.511 80.6576 60.2574 80.5933 60.0678 80.5933C59.9399 80.5933 59.8781 80.5933 59.8142 80.5933V80.4647C59.7503 80.4004 59.7503 80.2718 59.6864 80.2718V80.2075C59.6224 79.9503 59.5606 79.8217 59.4967 79.691V79.4338C59.3689 79.2409 59.3071 79.048 59.2431 78.7887C59.1153 78.5315 59.0514 78.2078 58.8617 77.9506C58.7339 77.6292 58.6721 77.3698 58.4803 77.1126C58.3524 76.7268 58.1628 76.4032 58.0371 76.0174L57.9092 75.5652C57.9092 75.5009 57.9092 75.3723 57.8453 75.308C57.8453 75.6295 57.8453 75.8245 57.8453 76.0817V76.146C57.9092 76.3389 57.9092 76.4032 57.8453 76.5982C57.7813 76.6625 57.7813 76.7268 57.7813 76.7911L57.8453 77.4363C57.9092 77.8221 57.9092 78.21 57.9092 78.5315V78.853C57.9092 79.1102 57.9092 79.4338 57.9092 79.7553V80.4647C57.9092 80.6576 57.9092 80.9148 57.9092 81.2384V82.2693C57.9092 82.6551 57.9092 82.9788 57.9092 83.3002V83.8811C57.9092 84.074 57.9092 84.2026 57.9092 84.3976V85.5571C57.9092 85.9429 57.9092 86.2022 57.9092 86.5237V87.426C57.9092 87.7475 57.8453 87.8761 57.8453 88.0711C57.7813 88.1997 57.7813 88.3283 57.7813 88.3926C57.7813 88.7141 57.7813 89.1021 57.7813 89.3593V89.6807C57.7174 89.8093 57.5917 89.9379 57.4638 89.9379C57.336 89.9379 57.2742 90.0022 57.2103 90.0022C57.1463 90.0665 57.0185 90.0665 56.8928 90.0665H55.9403C55.7485 90.0665 55.5588 90.0022 55.497 89.9379C55.4331 89.9379 55.3692 89.8736 55.3052 89.8736C55.0517 89.8736 54.9238 89.745 54.862 89.4878C54.862 89.3593 54.862 89.2307 54.862 89.1021V88.8449C54.7981 88.5877 54.7981 88.5234 54.7981 88.3283C54.7981 88.1997 54.7981 88.0711 54.862 88.0069V87.6854C54.862 87.4282 54.862 87.1045 54.862 86.9759V86.3308C54.862 86.2022 54.862 86.0093 54.9259 85.8143C54.9259 85.6857 54.9259 85.6214 54.9259 85.4928V84.9763C54.9259 84.8477 54.862 84.7191 54.862 84.6548C54.862 84.5262 54.862 84.3311 54.862 84.1383V83.7525C54.7981 83.5596 54.7981 83.3024 54.7981 83.1073C54.7981 82.9145 54.7981 82.6551 54.7981 82.3336V82.0121C54.7981 81.7549 54.7981 81.5621 54.7981 81.367V80.4004C54.862 80.2075 54.862 80.0146 54.9259 79.8196V79.3674C54.9259 79.0459 54.9259 78.7222 54.9259 78.3364V77.3698C54.9259 77.0483 54.9259 76.6604 54.9259 76.4032V74.9201C54.9259 74.4678 54.9259 74.0178 54.862 73.5655V73.244C54.862 72.9868 54.862 72.7275 54.862 72.5346V72.0824C54.9259 71.8895 54.9259 71.6302 54.9877 71.4373C54.9877 71.1158 55.0517 70.7921 55.0517 70.4707C55.1156 70.2778 55.1156 70.0849 55.1795 69.8255C55.1795 69.6969 55.1795 69.504 55.1156 69.504C55.0517 69.4397 55.0517 69.3754 55.0517 69.3111C55.0517 69.054 55.0517 68.7946 55.0517 68.6017V67.9566C55.0517 67.7637 55.1795 67.5708 55.2413 67.4401C55.3052 67.3758 55.3692 67.3115 55.431 67.3115C55.5588 67.2472 55.5588 67.2472 55.6845 67.2472C55.8742 67.1829 56.066 67.1829 56.3196 67.1186H56.8906C57.0164 67.1186 57.2081 67.1186 57.3339 67.1829C57.4617 67.1829 57.5874 67.2472 57.5874 67.3115C57.7153 67.4401 57.841 67.5044 57.9049 67.6973C58.0328 67.7616 58.1585 67.8902 58.2224 68.0188C58.2864 68.1474 58.3503 68.276 58.4121 68.3402C58.476 68.5974 58.5399 68.726 58.6657 68.9211C58.7935 69.4376 59.0471 69.8234 59.1728 70.2756C59.2368 70.5971 59.3007 70.8564 59.3625 71.0493L59.5542 71.6945C59.6182 71.8874 59.68 72.211 59.8078 72.4682C59.9357 72.7254 60.0614 72.9847 60.2511 73.2419C60.3789 73.4991 60.5046 73.8227 60.6325 74.2728C60.6964 74.2728 60.7582 74.2728 60.7582 74.2728L60.95 73.8206C61.0139 73.692 61.0139 73.5634 61.0757 73.4348L61.1396 73.1133C61.2036 72.8561 61.3293 72.7275 61.3932 72.5325C61.3932 72.5325 61.3932 72.4039 61.4571 72.2753C61.585 72.0824 61.6468 71.8895 61.7107 71.6302C61.7746 71.5659 61.8386 71.5016 61.8386 71.373L62.1561 70.5349C62.22 70.4064 62.2839 70.2135 62.2839 70.0827C62.4118 69.8255 62.4736 69.5662 62.6014 69.3733C62.6014 69.1804 62.6654 68.9211 62.7293 68.7282C62.8571 68.5353 62.9189 68.276 62.9829 68.0188C63.0468 67.8902 63.1086 67.7616 63.1725 67.6973L63.49 67.3115C63.6179 67.2472 63.7436 67.1829 63.8714 67.1829H64.1889C64.3807 67.1829 64.6322 67.1829 64.9497 67.1186H65.5847C65.7125 67.1829 65.8383 67.3115 65.9022 67.4401L66.094 67.9566C66.094 68.1495 66.094 68.3424 66.1579 68.4731C66.2218 68.666 66.2218 68.7303 66.2218 68.8589C66.2218 68.9875 66.2218 69.1804 66.2218 69.309V70.2756C66.2218 70.5328 66.2858 70.8564 66.2218 71.1136V72.2088C66.2218 72.5946 66.2218 72.9826 66.1579 73.4326C66.1579 73.6255 66.1579 73.8184 66.1579 74.0778V74.7229C66.2218 75.1751 66.2218 75.6252 66.2857 76.0774V76.7869C66.2857 76.9798 66.3497 77.1726 66.3497 77.3034V77.8842C66.3497 78.27 66.3497 78.7222 66.3497 79.0437V79.946C66.3497 80.2032 66.3497 80.5269 66.3497 80.7198V81.0412C66.3497 81.1698 66.3497 81.3627 66.3497 81.427V82.265C66.3497 82.4579 66.4136 82.6508 66.4136 82.9745C66.4136 82.9745 66.4136 83.1674 66.4136 83.2981V84.2004C66.4775 84.5219 66.4775 84.7169 66.4775 85.0384C66.4136 85.3621 66.4136 85.6193 66.4136 85.9407V86.5216C66.4136 86.7788 66.4136 86.9738 66.4136 87.231V87.7475C66.4775 87.7475 66.4775 87.8118 66.4775 87.8118V88.6498C66.5415 88.907 66.4775 89.2307 66.4136 89.3593C66.4136 89.4235 66.4136 89.4878 66.4136 89.5521V89.8093C66.3497 89.8736 66.2857 89.9379 66.16 90.0022C65.8425 90.1308 65.525 90.1308 65.2075 90.1308C65.0797 90.1308 64.9539 90.1308 64.8261 90.0665L64.1911 90.0022C63.8736 90.0022 63.5561 89.8736 63.4303 89.6164L63.2407 89.2307C63.2407 89.1021 63.2407 88.9735 63.1768 88.9092V88.3283C63.2407 88.0711 63.3046 87.8761 63.3664 87.7475V86.9738C63.3664 86.8452 63.3664 86.5216 63.3025 86.2644C63.2386 85.9429 63.2386 85.4907 63.2386 85.1692C63.2386 84.912 63.2386 84.6526 63.2386 84.4597V82.9766C63.2386 82.3315 63.2386 81.7528 63.2386 81.2363V80.5912C63.2386 80.3983 63.3025 80.2054 63.3025 79.946V79.0437C63.2386 78.7865 63.3025 78.4629 63.2386 78.1414C63.2386 77.6913 63.2386 77.3677 63.1746 76.9819C63.1746 76.6604 63.2386 76.2082 63.2386 75.8224H63.1789V75.8245Z" fill="white"/>
<path d="M88.2403 76.4697C88.3042 76.4697 88.3682 76.534 88.4939 76.534C88.8114 76.6626 89.1907 76.5983 89.4464 76.5983C89.6361 76.534 89.8278 76.4697 89.9536 76.4697C90.0814 76.4054 90.1432 76.4054 90.2711 76.4054C90.4607 76.4697 90.6525 76.5983 90.7782 76.7912C90.9061 77.0483 90.9679 77.3077 90.9679 77.5649C90.9679 77.7578 91.0318 77.8864 91.0318 78.0171C91.0318 78.3386 91.0318 78.6622 90.9679 78.9194C90.9679 79.1123 91.0318 79.1766 90.9679 79.3052C90.9039 79.3695 90.9039 79.4981 90.7782 79.5624C90.7782 79.6267 90.6504 79.691 90.5246 79.7553C90.3968 79.8839 90.1432 79.8839 89.9536 79.8839H89.6361C89.5721 79.8839 89.5082 79.8839 89.4464 79.8839H89.1289C89.001 79.8839 88.8753 79.8839 88.7475 79.8839H88.366C88.1764 79.8839 87.9846 79.9482 87.795 79.8839C87.795 79.8839 87.731 79.8839 87.731 79.9482C87.731 80.334 87.731 80.7219 87.795 81.1077V82.0743C87.795 82.2672 87.795 82.5265 87.795 82.7837V82.9766C87.795 83.5575 87.795 84.2004 87.795 84.7813V85.6836C87.795 85.8765 87.795 86.0694 87.795 86.3287V86.5216C87.9228 86.5216 88.0485 86.5216 88.1764 86.5216H88.8732C89.1268 86.5216 89.3803 86.5859 89.6339 86.6502C89.8236 86.6502 90.0154 86.7145 90.205 86.7145C90.4586 86.6502 90.7122 86.6502 90.9657 86.6502H91.4132C91.6668 86.5859 91.9204 86.5859 92.174 86.5859C92.3636 86.5859 92.5554 86.5216 92.745 86.5216C92.9986 86.5216 93.2522 86.5859 93.5058 86.6502C93.6315 86.6502 93.6954 86.7145 93.8233 86.9074C93.949 87.1003 94.0129 87.3596 93.949 87.6168C93.949 87.7454 93.949 87.874 93.8851 88.0026C93.8851 88.1312 93.8851 88.3241 93.8212 88.5191C93.7572 88.7763 93.6933 89.0356 93.5037 89.2928L93.3119 89.55C93.2479 89.6786 93.0583 89.6786 92.9944 89.7429C92.7408 89.8715 92.5511 89.9358 92.4233 89.9358C92.2954 90.0001 92.2336 90.0001 92.1058 90.0001C91.914 90.0001 91.6625 90.0644 91.4708 90.1287C91.2172 90.1287 91.0275 90.1287 90.7718 90.1287H89.6297C89.3122 90.0644 88.9947 90.0644 88.7411 90.0001H88.2979C88.1721 90.0001 88.0443 90.0001 87.8546 90.0001L87.7907 90.0644C87.6628 90.1287 87.601 90.1287 87.4732 90.1287C87.2196 90.0644 86.966 90.0001 86.7125 90.0001H86.4589C86.2671 90.0001 86.0774 89.9358 85.9517 89.8715C85.8239 89.8715 85.7621 89.8072 85.7621 89.6786C85.6981 89.6786 85.6342 89.55 85.5724 89.4857C85.3828 89.4214 85.3188 89.2285 85.2549 89.0999C85.1271 88.8428 85.1271 88.5191 85.1271 88.3262C85.1271 87.874 85.1271 87.4239 85.1271 86.9717V86.5859C85.1271 86.2644 85.0631 86.0051 85.0631 85.8122C84.9992 85.3621 84.9992 84.9099 85.1271 84.4576C85.191 84.2004 85.191 83.8125 85.191 83.491V82.3315C85.191 82.2029 85.191 82.1386 85.191 82.01V81.4935C85.191 81.2363 85.1271 80.977 85.1271 80.7841V79.6246C85.1271 79.4317 85.1271 79.2388 85.1271 79.0437V78.0771C85.1271 77.8199 85.1271 77.5606 85.1271 77.3677V76.8512C85.191 76.6583 85.191 76.4011 85.191 76.206V75.6252C85.191 75.0444 85.191 74.53 85.2549 73.8849V73.2398C85.2549 72.9183 85.191 72.6589 85.191 72.4017C85.191 72.3374 85.191 72.2731 85.191 72.2731V71.628C85.191 71.3708 85.1271 71.1115 85.1271 70.8543C85.1271 70.6614 85.1271 70.4685 85.0631 70.2735C84.9992 70.0806 84.9992 69.8234 84.9992 69.5641C84.9992 69.3069 84.9992 69.114 85.0631 68.8546C85.1271 68.5974 85.1271 68.4024 85.1889 68.1452V67.693C85.1889 67.6287 85.2528 67.5001 85.3167 67.3715C85.3167 67.2429 85.3806 67.1143 85.4446 67.05L85.5724 66.8571C85.6363 66.7928 85.7003 66.7928 85.7621 66.7928H85.9517C86.0156 66.7285 86.0156 66.7285 86.1435 66.7285H86.461C86.9682 66.7285 87.4135 66.7285 87.9207 66.7285H88.8093C88.935 66.7285 89.1268 66.7928 89.1907 66.7928C89.5082 66.8571 89.7618 66.8571 90.0154 66.7928H90.7143C90.9679 66.7285 91.2215 66.7285 91.475 66.7285C91.6647 66.7285 91.7925 66.6642 91.8565 66.6642C92.11 66.5999 92.2997 66.5999 92.5554 66.5999C92.745 66.6642 92.9986 66.7928 93.1904 66.9214C93.3161 67.05 93.444 67.2429 93.444 67.5022C93.444 67.6308 93.444 67.7594 93.5079 67.9545C93.5718 68.2117 93.5718 68.471 93.5079 68.7925C93.5079 68.9854 93.444 69.1783 93.3161 69.3733C93.1904 69.5662 92.9986 69.6948 92.745 69.6948C92.5554 69.6948 92.3636 69.6948 92.174 69.5662C92.0461 69.5662 91.9204 69.5662 91.7925 69.5662H91.2215C90.84 69.5662 90.5246 69.5662 90.2689 69.5662H89.1907C89.001 69.5662 88.8093 69.5662 88.5557 69.5662H88.2382C88.2382 69.5019 88.2382 69.5662 88.1743 69.5662C88.1743 69.6305 88.1743 69.6948 88.2382 69.7591C88.2382 70.0163 88.2382 70.3399 88.2382 70.5971V71.4994C88.3021 71.8852 88.3021 72.2731 88.3021 72.5946C88.366 72.7875 88.366 72.9804 88.366 73.1755C88.366 73.5612 88.366 73.8849 88.3021 74.335L88.1125 75.3016C88.0485 75.4945 88.0485 75.7517 88.0485 76.011C88.0485 76.2039 87.9846 76.3325 87.9846 76.4611H88.2403V76.4697Z" fill="white"/>
<path d="M115.588 86.6545C115.842 86.6545 116.095 86.5902 116.349 86.5902C116.666 86.5902 116.984 86.5902 117.301 86.5902H118.126C118.126 86.5902 118.126 86.5902 118.19 86.5902V86.0736C118.19 85.8164 118.19 85.5571 118.19 85.2999V84.2047C118.19 83.9475 118.126 83.6882 118.19 83.3667C118.19 82.9809 118.126 82.593 118.126 82.2072V81.95C118.126 81.6285 118.126 81.3692 118.126 81.0477V80.3382C118.062 80.274 117.998 80.2739 117.936 80.2739C117.683 80.1454 117.429 80.0811 117.112 79.9525C117.048 79.8882 116.922 79.8882 116.794 79.8239C116.605 79.8239 116.477 79.7596 116.351 79.6953C116.161 79.631 116.033 79.5667 115.844 79.5024L115.083 79.3095C115.019 79.2452 114.957 79.2452 114.83 79.1809C114.64 79.1166 114.448 79.0523 114.322 78.9237C114.005 78.7951 113.687 78.6665 113.498 78.4736C113.434 78.4093 113.37 78.4093 113.308 78.4093L113.118 78.2807C113.054 78.0235 112.865 77.8285 112.737 77.5713L112.547 77.1212C112.483 76.9926 112.483 76.9283 112.611 76.7976C112.611 76.7333 112.611 76.669 112.611 76.669V75.831C112.611 75.4452 112.611 75.0572 112.675 74.6714C112.675 74.35 112.739 74.0906 112.739 73.7691C112.739 73.4476 112.803 73.124 112.803 72.8025C112.803 72.6096 112.803 72.4167 112.803 72.1574V71.1908C112.803 70.9336 112.739 70.7385 112.675 70.4814C112.611 70.1599 112.611 69.8362 112.611 69.5147V68.4838C112.611 68.3552 112.675 68.2909 112.801 68.2266C112.801 68.1623 112.929 68.098 112.991 68.0337C113.118 67.9051 113.244 67.7765 113.434 67.648C113.562 67.4551 113.751 67.1957 113.941 67.0671L114.069 66.9385C114.133 66.8742 114.197 66.8742 114.258 66.8742C114.322 66.8742 114.386 66.8742 114.448 66.8099H115.147C115.528 66.8742 115.908 67.0028 116.353 66.9385H117.052C117.242 66.8742 117.433 66.8742 117.623 66.8742C117.749 66.8742 117.941 66.8742 118.066 66.8742L118.701 66.8099C118.827 66.8099 119.019 66.8099 119.272 66.7456C119.4 66.7456 119.526 66.7456 119.716 66.7456L119.78 66.8099C120.097 67.0671 120.351 67.3908 120.604 67.648C120.604 67.7765 120.668 67.8408 120.732 67.9051C120.858 67.9694 121.05 68.098 121.114 68.2909C121.177 68.3552 121.177 68.3552 121.177 68.4838C121.241 68.741 121.241 69.0004 121.241 69.2575C121.177 69.4504 121.241 69.7098 121.241 69.9027V70.4835C121.241 70.6121 121.241 70.7407 121.241 70.805V71.643C121.241 71.7716 121.305 71.9645 121.305 72.1595L121.369 72.4167C121.369 72.6096 121.241 72.6739 121.116 72.7382C120.926 72.7382 120.734 72.7382 120.545 72.6739C120.417 72.6739 120.355 72.7382 120.163 72.7382C120.163 72.8025 120.099 72.8025 120.035 72.8025C119.846 72.8025 119.654 72.7382 119.464 72.7382C119.275 72.7382 119.147 72.6739 119.021 72.6739H118.578C118.578 72.6739 118.514 72.7382 118.45 72.7382C118.386 72.8025 118.26 72.6739 118.196 72.6096C118.196 72.6096 118.196 72.5453 118.196 72.481V72.0288C118.196 71.9645 118.132 71.7716 118.132 71.7073V71.1908C118.132 70.805 118.132 70.4814 118.132 70.1599V69.9027C117.943 69.967 117.751 69.9027 117.561 69.9027C117.308 69.8384 117.118 69.8384 116.865 69.8384H116.675C116.483 69.8384 116.293 69.8384 116.104 69.9027H115.722C115.722 69.9027 115.658 69.9027 115.597 69.9027V70.5478C115.597 70.7407 115.597 70.9336 115.533 71.1286V71.5808C115.533 71.7094 115.533 71.838 115.597 71.9666V72.6761C115.597 72.9333 115.661 73.1926 115.661 73.3855V74.4164C115.661 74.7379 115.661 75.1258 115.661 75.4473V76.0924C115.661 76.1567 115.661 76.221 115.724 76.221C115.852 76.221 115.978 76.2853 116.168 76.3496C116.296 76.3496 116.357 76.4139 116.549 76.4782C116.867 76.6068 117.246 76.7354 117.563 76.9305C117.691 76.9948 117.881 76.9947 118.071 77.059C118.324 77.1233 118.578 77.2519 118.831 77.3805L119.275 77.6377C119.338 77.702 119.338 77.702 119.402 77.702L119.784 77.8949C119.912 78.0235 120.101 78.0235 120.291 78.1521C120.355 78.1521 120.355 78.2164 120.417 78.2807C120.67 78.6022 120.798 78.9258 120.988 79.183C121.052 79.3116 121.052 79.3759 121.052 79.4402C121.116 79.5688 121.052 79.6331 121.052 79.7617V80.5354C121.052 80.7283 121.052 80.9855 121.052 81.1806V81.502C121.052 81.8235 121.052 82.0829 121.052 82.4044V83.3067C121.052 83.4353 121.052 83.4996 121.052 83.6282V84.014C121.052 84.1425 121.052 84.1426 121.052 84.2711V85.69C121.052 85.69 121.052 85.7543 121.052 85.8186V86.0758C121.052 86.2044 121.052 86.3973 121.052 86.5923V87.4946C121.116 87.8161 121.116 88.1397 121.116 88.3969C121.116 88.5255 121.052 88.6541 120.988 88.7184C120.924 88.7827 120.86 88.847 120.798 88.847C120.734 89.0399 120.608 89.1042 120.417 89.2328C120.291 89.3614 120.163 89.5543 119.973 89.685C119.91 89.7493 119.846 89.8136 119.72 89.8779C119.72 89.9422 119.592 90.0065 119.466 89.9422C119.466 89.8779 119.466 89.8779 119.402 89.8779C119.213 89.8136 119.021 89.8136 118.831 89.8136C118.45 89.7493 118.071 89.8779 117.689 89.8779C117.308 89.8779 117.054 89.9422 116.675 90.0065H116.168C115.786 90.0065 115.471 90.0065 115.089 89.9422C114.964 89.8779 114.772 89.9422 114.582 89.8779C114.393 89.8779 114.265 89.8779 114.139 89.8136C114.075 89.8136 114.011 89.7493 113.949 89.7493C113.822 89.6207 113.696 89.4921 113.632 89.3636L113.251 89.1064C113.059 88.8492 112.807 88.6541 112.616 88.3969V88.2683V87.4946C112.616 87.2374 112.616 86.9138 112.616 86.6566V86.0115C112.616 85.9472 112.616 85.9472 112.552 85.8829C112.552 85.8186 112.488 85.7543 112.488 85.69C112.552 85.4971 112.552 85.2378 112.552 85.0449C112.552 84.852 112.552 84.7877 112.552 84.5948V84.2733C112.552 84.1447 112.616 84.0161 112.805 84.0161C112.995 83.9518 113.187 83.9518 113.376 83.8875C113.504 83.8875 113.63 83.9518 113.694 83.9518C114.011 83.8875 114.329 83.9518 114.582 84.0161H115.153C115.281 84.0161 115.407 84.0804 115.471 84.2733C115.471 84.6591 115.535 85.047 115.535 85.4971C115.535 85.7543 115.535 86.0779 115.535 86.3994L115.588 86.6545Z" fill="white"/>
</svg>
