<?xml version="1.0" encoding="utf-8"?>
<!-- Generator: Adobe Illustrator 23.0.3, SVG Export Plug-In . SVG Version: 6.00 Build 0)  -->
<svg version="1.1" id="Calque_1" xmlns="http://www.w3.org/2000/svg" xmlns:xlink="http://www.w3.org/1999/xlink" x="0px" y="0px"
	 viewBox="0 0 48 62" style="enable-background:new 0 0 48 62;" xml:space="preserve">
<style type="text/css">
	.st0{fill:#FFFFFF;}
</style>
<path class="st0" d="M20.43,22.47c0.58,1.69,1.62,3.11,2.56,4.6c0.6,0.95,1.15,1.88,1.13,3.1c-0.02,1.04,0.49,1.42,1.54,1.43
	c0.96,0,1.93,0,2.89,0c0.92,0,1.84,0,2.76,0c1.31,0,1.68-0.41,1.76-1.7c0.04-0.6,0.2-1.24,0.49-1.76c0.78-1.41,1.7-2.75,2.5-4.16
	c1.37-2.44,1.62-5.06,0.57-7.64c-1.98-4.84-7.39-6.85-11.99-4.52C20.64,13.85,19.02,18.36,20.43,22.47z M18.03,28.07
	c-1.13,1.09-2.24,2.2-3.34,3.33c-0.43,0.44-0.5,1.04-0.27,1.58c0,0.01,0,0.01,0.01,0.02c0.31,0.72,1.15,1.06,1.88,0.77
	c0.17-0.07,0.33-0.14,0.45-0.26c1.16-1.11,2.31-2.24,3.4-3.42c0.57-0.61,0.5-1.54-0.04-2.05C19.57,27.51,18.64,27.49,18.03,28.07z
	 M37.33,11.55c0.01,0,0.01,0.01,0.02,0.01c0.6,0.34,1.16,0.19,1.56-0.18c1.18-1.1,2.32-2.24,3.42-3.42c0.65-0.7,0.57-1.53-0.08-2.11
	C41.6,5.27,40.8,5.3,40.14,5.95c-1.06,1.05-2.12,2.1-3.15,3.18c-0.01,0.01-0.02,0.02-0.03,0.03C36.31,9.9,36.48,11.06,37.33,11.55z
	 M36.86,28.23c-0.5,0.65-0.42,1.33,0.31,2.09c1.01,1.05,2.03,2.08,3.08,3.08c0.11,0.11,0.24,0.19,0.38,0.26
	c0.76,0.41,1.72,0.12,2.08-0.66c0-0.01,0.01-0.01,0.01-0.02c0.25-0.55,0.16-1.13-0.27-1.57c-1.1-1.13-2.2-2.25-3.34-3.34
	C38.39,27.39,37.42,27.5,36.86,28.23z M31.7,33.09c-1.05-0.02-2.09,0-3.14,0s-2.09-0.01-3.14,0.01c-0.94,0.02-1.32,0.43-1.33,1.35
	c0,0.52,0,1.05,0,1.57c0,1.14,0.34,1.46,1.47,1.56c0.32,0.03,0.71,0.17,0.91,0.4c1.16,1.31,2.96,1.41,4.1,0.12
	c0.34-0.39,0.67-0.54,1.17-0.55c0.97-0.03,1.32-0.43,1.32-1.42c0-0.54,0-1.09,0-1.63C33.05,33.52,32.66,33.11,31.7,33.09z
	 M18.23,11.34c0.4,0.38,0.9,0.56,1.48,0.26c0.38-0.19,0.66-0.44,0.82-0.82c0.15-0.37,0.14-0.8-0.01-1.17
	c-0.04-0.1-0.1-0.2-0.17-0.28c-1.15-1.19-2.31-2.37-3.53-3.48c-0.65-0.6-1.47-0.51-2.01,0.05c-0.58,0.6-0.63,1.34,0,2.01
	C15.91,9.09,17.06,10.23,18.23,11.34z M42.87,43.75c-0.94,0.11-1.93,0.42-2.73,0.91c-1.94,1.16-3.78,2.48-5.68,3.72
	c-0.36,0.23-0.49,0.49-0.47,0.92c0.08,1.69-0.55,3.03-2.18,3.65c-0.91,0.35-1.91,0.6-2.88,0.64c-2.3,0.09-4.61,0.1-6.91,0.01
	c-1.4-0.05-2.8-0.32-4.19-0.54c-0.54-0.09-1.11-0.23-1.57-0.52c-0.26-0.16-0.44-0.65-0.43-0.99c0.01-0.43,0.4-0.66,0.85-0.64
	c0.33,0.01,0.67,0.04,1,0.09c1.38,0.24,2.75,0.56,4.14,0.71c1.1,0.12,1.97,0.14,3.08,0.14c0,0.05,0.26-0.02,0.26,0.03
	c1.78-0.15,3.57-0.24,5.34-0.46c0.74-0.1,1.4-0.56,1.57-1.39c0.19-0.98-0.09-1.53-0.98-2.06c-1.01-0.6-2.16-0.66-3.28-0.8
	c-0.52-0.06-1.04-0.07-1.55-0.17c-1.1-0.21-2.21-0.44-3.3-0.7c-1.25-0.3-2.43-0.68-3.3-1.75c-0.51-0.63-1.11-1.23-1.79-1.65
	c-1.73-1.08-3.69-1.34-5.68-1.34c-1.51,0-2.95,0.35-4.33,0.98c-2.35,1.07-4.7,2.14-7.06,3.19c-0.64,0.28-0.87,0.75-0.74,1.39
	c0.45,2.3,0.97,4.59,2.16,6.64c0.88,1.52,1.93,2.94,2.95,4.38c0.29,0.41,0.73,0.49,1.2,0.16c0.66-0.46,1.38-0.85,2.02-1.33
	c1.16-0.86,2.32-0.99,3.62-0.29c2.66,1.41,5.32,2.82,8.03,4.13c1.09,0.53,2.28,0.95,3.47,1.14c1.75,0.28,3.31-0.5,4.74-1.43
	c3.41-2.21,6.8-4.44,10.17-6.69c2.09-1.39,4.17-2.8,6.22-4.26c0.9-0.64,1.62-1.54,1.74-2.67C46.59,44.83,44.71,43.54,42.87,43.75z
	 M46.49,18.2c-0.77-0.03-1.54-0.01-2.32-0.01c0,0,0,0,0,0.01c-0.81,0-1.63-0.04-2.44,0.01c-0.92,0.05-1.42,0.64-1.39,1.5
	c0.03,0.77,0.72,1.44,1.53,1.44c1.52-0.01,3.05-0.04,4.57-0.07c0.95-0.02,1.55-0.58,1.56-1.42C48.01,18.8,47.46,18.25,46.49,18.2z
	 M10.61,21.14c0.73-0.02,1.46,0,2.19,0c0.77,0,1.55-0.04,2.32-0.06c0.93-0.03,1.51-0.62,1.5-1.48c-0.01-0.84-0.58-1.38-1.57-1.4
	c-1.44-0.03-2.88-0.02-4.32-0.01c-1,0-1.66,0.15-1.57,1.58C9.21,20.65,9.72,21.17,10.61,21.14z M27.1,3.83
	c0,0.81-0.04,1.63,0.01,2.44c0.05,0.92,0.64,1.42,1.5,1.39c0.77-0.03,1.44-0.72,1.44-1.53c-0.01-1.52-0.04-3.05-0.07-4.57
	C29.95,0.61,29.4,0.01,28.56,0c-0.86-0.01-1.41,0.54-1.46,1.51C27.07,2.28,27.09,3.06,27.1,3.83C27.1,3.83,27.1,3.83,27.1,3.83z"/>
</svg>
