<?xml version="1.0" encoding="utf-8"?>
<!-- Generator: Adobe Illustrator 23.0.3, SVG Export Plug-In . SVG Version: 6.00 Build 0)  -->
<svg version="1.1" id="Calque_1" xmlns="http://www.w3.org/2000/svg" xmlns:xlink="http://www.w3.org/1999/xlink" x="0px" y="0px"
	 viewBox="0 0 136.06 136.06" style="enable-background:new 0 0 136.06 136.06;" xml:space="preserve">
<style type="text/css">
	.st0{fill:#FFFFFF;}
</style>
<path class="st0" d="M68.03,0C30.46,0,0,30.46,0,68.03s30.46,68.03,68.03,68.03s68.03-30.46,68.03-68.03S105.6,0,68.03,0z
	 M85.36,71.11c8.11,8.04,16.24,16.07,24.36,24.1c5.1,5.04,5.12,6.4,0.18,11.4c-1.19,1.2-2.38,2.4-3.59,3.59
	c-4.62,4.56-6.1,4.53-10.79-0.2c-7.94-8.01-15.87-16.04-23.82-24.05c-1.08-1.09-2.22-2.12-3.44-3.28
	c-9.18,9.04-18.06,17.69-26.83,26.45c-5.92,5.91-6.73,5.99-12.58,0.18c-8.24-8.17-8.25-8.18-0.07-16.45
	c8.12-8.21,16.25-16.41,25.54-25.79c-2.31-1.8-4.8-3.42-6.89-5.44c-7.1-6.85-14.07-13.85-21.09-20.79
	c-5.12-5.07-5.14-6.36-0.17-11.39c1.19-1.2,2.38-2.41,3.59-3.59c4.64-4.57,6.08-4.55,10.78,0.2c7.84,7.91,15.7,15.82,23.51,23.76
	c1.18,1.2,2.13,2.61,3.41,4.2c1.66-1.49,2.71-2.35,3.66-3.31c8.05-8.11,16.07-16.24,24.1-24.36c5.04-5.1,6.4-5.12,11.4-0.17
	c1.2,1.19,2.41,2.38,3.59,3.59c4.57,4.64,4.55,6.07-0.2,10.78c-8.01,7.94-16.04,15.87-24.05,23.82c-1.09,1.08-2.12,2.22-3.45,3.62
	C83.54,69.1,84.4,70.16,85.36,71.11z"/>
</svg>
