<?xml version="1.0" encoding="utf-8"?>
<!-- Generator: Adobe Illustrator 23.0.3, SVG Export Plug-In . SVG Version: 6.00 Build 0)  -->
<svg version="1.1" id="Calque_1" xmlns="http://www.w3.org/2000/svg" xmlns:xlink="http://www.w3.org/1999/xlink" x="0px" y="0px"
	 viewBox="0 0 48 52.28" style="enable-background:new 0 0 48 52.28;" xml:space="preserve">
<style type="text/css">
	.st0{fill:#FFFFFF;}
</style>
<path class="st0" d="M43.29,4.51h-3.79v-2c0-1.39-1.14-2.52-2.52-2.52l0,0c-1.39,0-2.52,1.14-2.52,2.52V4.5H13.63V2.52
	C13.63,1.14,12.49,0,11.1,0S8.58,1.14,8.58,2.52V4.5H4.72C2.13,4.51,0,6.64,0,9.23v38.33c0,2.59,2.13,4.72,4.72,4.72h38.56
	c2.59,0,4.72-2.13,4.72-4.72V9.23C48.01,6.64,45.89,4.51,43.29,4.51z M42.14,46.73H5.87V18.1h36.27V46.73z M27.32,41.58h8.91
	c0.58,0,1.06-0.48,1.06-1.06v-8.91c0-0.58-0.48-1.06-1.06-1.06h-8.91c-0.58,0-1.06,0.48-1.06,1.06v8.91
	C26.26,41.1,26.74,41.58,27.32,41.58z"/>
</svg>
