<?xml version="1.0" encoding="utf-8"?>
<!-- Generator: Adobe Illustrator 23.0.3, SVG Export Plug-In . SVG Version: 6.00 Build 0)  -->
<svg version="1.1" id="Calque_1" xmlns="http://www.w3.org/2000/svg" xmlns:xlink="http://www.w3.org/1999/xlink" x="0px" y="0px"
	 viewBox="0 0 48 48" style="enable-background:new 0 0 48 48;" xml:space="preserve">
<style type="text/css">
	.st0{fill:#FFFFFF;}
</style>
<path class="st0" d="M24,0C10.75,0,0,10.75,0,24s10.75,24,24,24s24-10.75,24-24S37.25,0,24,0z M26.01,39.65
	c-0.65,0.58-1.41,0.87-2.27,0.87c-0.89,0-1.66-0.29-2.32-0.86c-0.66-0.57-0.99-1.38-0.99-2.41c0-0.92,0.32-1.69,0.96-2.31
	c0.64-0.63,1.43-0.94,2.36-0.94c0.92,0,1.69,0.31,2.31,0.94c0.63,0.63,0.94,1.4,0.94,2.31C26.99,38.27,26.66,39.07,26.01,39.65z
	 M34.16,19.44c-0.5,0.93-1.1,1.74-1.79,2.41c-0.69,0.68-1.93,1.82-3.72,3.42c-0.49,0.45-0.89,0.85-1.19,1.19s-0.52,0.65-0.67,0.94
	c-0.15,0.28-0.26,0.57-0.34,0.85c-0.08,0.28-0.2,0.78-0.36,1.5c-0.28,1.51-1.14,2.27-2.6,2.27c-0.76,0-1.39-0.25-1.91-0.74
	c-0.52-0.49-0.77-1.23-0.77-2.2c0-1.22,0.19-2.28,0.57-3.18c0.38-0.89,0.88-1.68,1.51-2.36c0.63-0.68,1.47-1.48,2.53-2.41
	c0.93-0.81,1.6-1.43,2.02-1.84c0.41-0.41,0.76-0.88,1.05-1.39s0.43-1.06,0.43-1.66c0-1.16-0.43-2.15-1.3-2.95
	c-0.87-0.8-1.98-1.2-3.35-1.2c-1.6,0-2.78,0.4-3.54,1.21c-0.76,0.81-1.4,2-1.92,3.57c-0.49,1.64-1.43,2.47-2.82,2.47
	c-0.81,0-1.5-0.29-2.06-0.86c-0.56-0.57-0.84-1.2-0.84-1.87c0-1.38,0.44-2.78,1.33-4.2c0.89-1.42,2.18-2.59,3.89-3.52
	c1.7-0.93,3.69-1.4,5.96-1.4c2.11,0,3.97,0.39,5.59,1.17c1.62,0.78,2.86,1.84,3.74,3.18c0.88,1.34,1.32,2.79,1.32,4.37
	C34.91,17.42,34.66,18.51,34.16,19.44z"/>
</svg>
