<?xml version="1.0" encoding="utf-8"?>
<!-- Generator: Adobe Illustrator 23.0.3, SVG Export Plug-In . SVG Version: 6.00 Build 0)  -->
<svg version="1.1" id="Calque_1" xmlns="http://www.w3.org/2000/svg" xmlns:xlink="http://www.w3.org/1999/xlink" x="0px" y="0px"
	 viewBox="0 0 48 33.47" style="enable-background:new 0 0 48 33.47;" xml:space="preserve">
<style type="text/css">
	.st0{fill:#FFFFFF;}
</style>
<path class="st0" d="M39.76,16.77c2.89,0,5.3-2.48,5.22-5.37c-0.08-2.8-2.45-5.1-5.24-5.09c-2.8,0.01-5.15,2.31-5.22,5.11
	C34.45,14.31,36.86,16.77,39.76,16.77z M24.01,14.67c4.01-0.01,7.32-3.34,7.32-7.35C31.33,3.31,27.99-0.01,23.99,0
	c-4,0.01-7.33,3.34-7.32,7.35C16.68,11.35,20.01,14.67,24.01,14.67z M8.02,16.76c2.88,0.13,5.4-2.24,5.46-5.13
	c0.05-2.79-2.21-5.2-5-5.33c-2.89-0.13-5.4,2.23-5.46,5.13C2.96,14.23,5.22,16.64,8.02,16.76z M24,19.14
	c-15.61,0-14.67,6.42-14.67,6.42v6.49c0,0.79,0.64,1.43,1.43,1.43h26.49c0.79,0,1.43-0.64,1.43-1.43V25.6
	C38.67,25.6,39.61,19.14,24,19.14z M39.75,20.97c0,0,2.02,1.05,2.02,6.96v5.54h5.06c0.64,0,1.17-0.53,1.17-1.17v-5.64
	C48,26.67,47.96,22.8,39.75,20.97z M0,26.67v5.64c0,0.64,0.53,1.17,1.17,1.17h5.06v-5.54c0-5.91,2.02-6.96,2.02-6.96
	C0.04,22.8,0,26.67,0,26.67z"/>
</svg>
