<?xml version="1.0" encoding="utf-8"?>
<!-- Generator: Adobe Illustrator 23.0.3, SVG Export Plug-In . SVG Version: 6.00 Build 0)  -->
<svg version="1.1" id="Calque_1" xmlns="http://www.w3.org/2000/svg" xmlns:xlink="http://www.w3.org/1999/xlink" x="0px" y="0px"
	 viewBox="0 0 48 41.45" style="enable-background:new 0 0 48 41.45;" xml:space="preserve">
<style type="text/css">
	.st0{fill:#FFFFFF;}
</style>
<g id="surface11422868">
	<path class="st0" d="M24,0c-0.59,0-1.15,0.23-1.55,0.64l-22,19.21C0.16,20.05,0,20.38,0,20.73c0,0.6,0.49,1.09,1.09,1.09h5.45
		v17.45c0,1.21,0.97,2.18,2.18,2.18h8.73c1.21,0,2.18-0.97,2.18-2.18V26.18h8.73v13.09c0,1.21,0.97,2.18,2.18,2.18h8.73
		c1.21,0,2.18-0.97,2.18-2.18V21.82h5.45c0.6,0,1.09-0.49,1.09-1.09c0-0.35-0.16-0.68-0.45-0.87L25.56,0.67l-0.01-0.01
		C25.15,0.23,24.59,0,24,0z"/>
</g>
</svg>
