<svg width="48" height="48" viewBox="0 0 48 48" fill="none" xmlns="http://www.w3.org/2000/svg">
<path d="M29.9228 15.0006C21.017 15.0006 12.1103 15.0006 3.20454 15.0015C1.24131 15.0015 0 16.2513 0 18.2295C0 27.0886 0 35.9486 0 44.8076C0 46.7427 1.25631 48 3.19235 48C12.0672 48 20.942 48 29.8168 48C31.7416 48 32.997 46.7333 32.9979 44.7945C32.9979 40.3729 32.9979 35.9504 32.9979 31.5289C32.9979 27.0445 32.9989 22.5601 32.997 18.0758C32.997 16.3038 31.691 15.0006 29.9228 15.0006ZM9.00046 25.5022C9.01077 24.6406 9.65393 24.0087 10.523 24.0002C11.5056 23.9909 12.4891 23.9909 13.4726 24.0012C14.3632 24.0105 14.9914 24.6481 14.9989 25.5472C15.0073 26.5148 15.0064 27.4823 14.9989 28.4499C14.9914 29.3669 14.3539 29.9922 13.4276 30.0006C12.9438 30.0053 12.46 30.0016 11.9762 30.0016C11.4925 30.0016 11.0087 30.0091 10.5249 30.0006C9.65393 29.9856 9.01171 29.3603 9.0014 28.4987C8.98827 27.5002 8.98827 26.5007 9.00046 25.5022ZM14.9951 37.5293C14.9801 38.3506 14.3548 38.9806 13.5354 38.9966C12.5059 39.0163 11.4756 39.0163 10.4462 38.9966C9.65393 38.9816 9.02109 38.3543 9.00421 37.5612C8.98171 36.5167 8.97983 35.4704 9.00421 34.4259C9.02296 33.6384 9.66612 33.0271 10.4621 33.0027C10.9768 32.9868 11.4915 32.9999 12.0062 32.9999C12.5059 32.9999 13.0047 32.9896 13.5035 33.0018C14.3482 33.0233 14.9839 33.6478 14.9961 34.4869C15.0111 35.5004 15.013 36.5158 14.9951 37.5293ZM18.0009 25.5003C18.0131 24.6368 18.6544 24.0096 19.5272 24.0012C20.5098 23.9909 21.4933 23.9899 22.4758 24.0021C23.3693 24.0134 23.9918 24.65 23.9993 25.5519C24.0068 26.5195 24.0087 27.487 23.9984 28.4537C23.989 29.3575 23.3674 29.9819 22.4711 29.9997C21.9874 30.0091 21.5036 30.0016 21.0198 30.0016C20.521 30.0025 20.0213 30.01 19.5226 30.0006C18.6506 29.9856 18.014 29.364 18.0019 28.4959C17.9869 27.4973 17.9869 26.4988 18.0009 25.5003ZM23.9984 37.4683C23.989 38.359 23.3496 38.9919 22.4543 39.0003C21.4867 39.0097 20.5201 39.0097 19.5526 39.0003C18.6281 38.9909 18.0084 38.359 17.999 37.4327C17.9944 36.9489 17.9981 36.4651 17.9981 35.9814C17.999 35.4826 17.9887 34.9829 18.0019 34.4841C18.0244 33.6393 18.6478 33.0158 19.4963 33.0037C20.4948 32.9896 21.4933 32.9905 22.4918 33.0018C23.3571 33.0121 23.9872 33.6459 23.9984 34.5197C24.0106 35.5023 24.0097 36.4858 23.9984 37.4683ZM47.9978 3.04568C47.9978 1.30556 46.6861 0.00140635 44.9404 0.00140635C35.9868 -0.000468782 27.0333 -0.000468782 18.0797 0.00140635C16.3011 0.00140635 15.0045 1.29712 15.0017 3.07287C14.998 4.90112 15.0008 6.72937 15.0017 8.55762C15.0017 8.69356 15.0167 8.82857 15.027 8.99827C15.2248 8.99827 15.3936 8.99827 15.5624 8.99827C22.2818 8.99827 29.0002 8.99733 35.7196 8.99921C37.7822 9.00015 39.002 10.2274 39.0029 12.2929C39.0029 18.9655 39.0029 25.6372 39.002 32.3099C39.002 32.5246 39.002 32.7393 39.002 32.9999C39.1829 32.9999 39.3198 32.9999 39.4558 32.9999C41.284 32.9999 43.1122 33.0027 44.9404 32.999C46.6852 32.9962 47.9987 31.6929 47.9987 29.9538C48.0006 20.9841 48.0006 12.0144 47.9978 3.04568Z" fill="white"/>
</svg>
