<?xml version="1.0" encoding="utf-8"?>
<!-- Generator: Adobe Illustrator 23.0.3, SVG Export Plug-In . SVG Version: 6.00 Build 0)  -->
<svg version="1.1" id="Calque_1" xmlns="http://www.w3.org/2000/svg" xmlns:xlink="http://www.w3.org/1999/xlink" x="0px" y="0px"
	 viewBox="0 0 48 42.52" style="enable-background:new 0 0 48 42.52;" xml:space="preserve">
<style type="text/css">
	.st0{fill:#FFFFFF;}
</style>
<path class="st0" d="M7,4.22h33.9c1.16,0,2.11-0.94,2.11-2.11S42.07,0,40.91,0H7C5.84,0,4.9,0.94,4.9,2.11S5.84,4.22,7,4.22z
	 M46.44,20.1c-0.02-0.05-0.04-0.1-0.06-0.15l-2.59-8.3l-0.01,0.01c-0.36-1.33-1.57-2.32-3-2.32H7.23c-1.29,0-2.4,0.79-2.88,1.91
	c-0.05,0.12-0.08,0.25-0.12,0.38l-0.01-0.01L0,25.13c0,1.38,0.91,2.55,2.16,2.96v12.03c0,1.33,1.08,2.41,2.41,2.41h19.47
	c1.33,0,2.41-1.08,2.41-2.41V28.25h14.85v11.83c0,1.33,1.08,2.41,2.41,2.41s2.41-1.08,2.41-2.41v-12.1C47.23,27.5,48,26.4,48,25.13
	L46.44,20.1z M21.64,37.71H6.98v-9.46h14.65V37.71z"/>
</svg>
