<?xml version="1.0" encoding="utf-8"?>
<!-- Generator: Adobe Illustrator 23.0.3, SVG Export Plug-In . SVG Version: 6.00 Build 0)  -->
<svg version="1.1" id="Calque_1" xmlns="http://www.w3.org/2000/svg" xmlns:xlink="http://www.w3.org/1999/xlink" x="0px" y="0px"
	 viewBox="0 0 48 46.81" style="enable-background:new 0 0 48 46.81;" xml:space="preserve">
<style type="text/css">
	.st0{fill:#FFFFFF;}
</style>
<path class="st0" d="M33.73,9.24H4.87C2.19,9.24,0,11.43,0,14.11v20.41v1.75v8.42v0.02c0,1.18,1.15,2.1,2.44,2.1
	c0.58,0,1.1-0.19,1.51-0.51l0.01,0.01l0.12-0.11c0.04-0.03,0.07-0.06,0.1-0.09l5.63-4.97h23.91c2.68,0,4.87-2.19,4.87-4.87V14.11
	C38.59,11.43,36.41,9.24,33.73,9.24z M45.59,0h-33.9c-1.33,0-2.41,1.08-2.41,2.41s1.08,2.41,2.41,2.41h31.49v21.17
	c0,1.33,1.08,2.41,2.41,2.41c1.33,0,2.41-1.08,2.41-2.41V2.41C48.01,1.08,46.92,0,45.59,0z"/>
</svg>
