<?xml version="1.0" encoding="utf-8"?>
<!-- Generator: Adobe Illustrator 23.0.3, SVG Export Plug-In . SVG Version: 6.00 Build 0)  -->
<svg version="1.1" id="Calque_1" xmlns="http://www.w3.org/2000/svg" xmlns:xlink="http://www.w3.org/1999/xlink" x="0px" y="0px"
	 viewBox="0 0 48 43.2" style="enable-background:new 0 0 48 43.2;" xml:space="preserve">
<style type="text/css">
	.st0{fill:#FFFFFF;}
</style>
<g id="surface11957233">
	<path class="st0" d="M4.8,0C2.15,0,0,2.15,0,4.8V36c0,3.97,3.23,7.2,7.2,7.2h33.6c3.95,0,7.2-3.25,7.2-7.2V12
		c0.01-0.65-0.24-1.27-0.71-1.73c-0.46-0.46-1.09-0.71-1.74-0.71c-1.31,0.02-2.38,1.12-2.35,2.44v24c0,1.36-1.04,2.4-2.4,2.4
		c-1.33,0-2.4-1.08-2.4-2.4V4.8c0-2.65-2.15-4.8-4.8-4.8H4.8z M12,7.2h14.4c1.33,0,2.4,1.07,2.4,2.4V12c0,1.33-1.07,2.4-2.4,2.4H12
		c-1.33,0-2.4-1.07-2.4-2.4V9.6C9.6,8.27,10.67,7.2,12,7.2z M12,21.6h14.4c1.33,0,2.4,1.07,2.4,2.4s-1.07,2.4-2.4,2.4H12
		c-1.33,0-2.4-1.07-2.4-2.4S10.67,21.6,12,21.6z M12,31.2h14.4c1.33,0,2.4,1.07,2.4,2.4S27.73,36,26.4,36H12
		c-1.33,0-2.4-1.07-2.4-2.4S10.67,31.2,12,31.2z"/>
</g>
</svg>
