<?xml version="1.0" encoding="utf-8"?>
<!-- Generator: Adobe Illustrator 23.0.3, SVG Export Plug-In . SVG Version: 6.00 Build 0)  -->
<svg version="1.1" id="Calque_1" xmlns="http://www.w3.org/2000/svg" xmlns:xlink="http://www.w3.org/1999/xlink" x="0px" y="0px"
	 viewBox="0 0 47.98 48.06" style="enable-background:new 0 0 47.98 48.06;" xml:space="preserve">
<style type="text/css">
	.st0{fill:#FFFFFF;}
</style>
<g>
	<path class="st0" d="M47.98,12.64c0-0.21,0-0.43-0.02-0.64c-0.07-0.58-0.4-0.82-1-0.69c-0.3,0.07-0.6,0.18-0.88,0.3
		c-6.49,2.65-12.97,5.3-19.46,7.94c-1.1,0.45-1.67,1.16-1.65,2.38c0.04,4.12,0.02,8.23,0.02,12.35c0,4.24,0,8.49,0,12.73
		c0,0.99,0.44,1.26,1.36,0.84c0.68-0.31,1.34-0.68,2-1.02c5.95-3.11,11.9-6.22,17.87-9.31c1.2-0.62,1.78-1.46,1.78-2.82
		C47.97,27.36,47.98,20,47.98,12.64z M36.17,25.06c-0.1,1.92-0.98,3.44-2.68,4.41c-1.72,0.99-3.41,0.06-3.51-1.87
		c-0.1-1.88,0.72-3.37,2.2-4.51c0.82-0.63,1.78-0.93,2.78-0.45C35.97,23.13,36.2,24.04,36.17,25.06z M43.46,31.79
		c-0.31,1.02-0.91,1.87-1.73,2.56c-0.8,0.68-1.73,1.03-2.74,0.59c-0.99-0.42-1.17-1.34-1.18-2.52c0.05-1.52,0.83-2.9,2.22-3.97
		c0.23-0.17,0.5-0.31,0.77-0.41c1.36-0.51,2.53,0.12,2.82,1.51C43.76,30.31,43.69,31.06,43.46,31.79z"/>
	<path class="st0" d="M21.36,19.58c-0.71-0.3-1.43-0.58-2.14-0.87c-5.89-2.4-11.78-4.81-17.68-7.2c-1.21-0.49-1.52-0.27-1.52,1
		c0,7.48,0.01,14.97-0.02,22.45c0,1.17,0.46,1.92,1.5,2.45c3.27,1.68,6.52,3.4,9.78,5.1c3.36,1.75,6.72,3.5,10.08,5.24
		c1.22,0.63,1.63,0.36,1.64-0.98c0-4.1,0-8.2,0-12.3c0-4.15-0.01-8.31,0-12.46C23.02,20.81,22.45,20.03,21.36,19.58z M7.21,35.92
		c-0.41,0.65-1.17,0.97-1.94,0.83C4.68,36.65,4.16,36.4,3.71,36c-1.33-1.2-2.04-2.66-1.9-4.44c0.14-1.74,1.67-2.54,3.21-1.65
		c1.73,1,2.44,2.6,2.61,4.39C7.61,34.93,7.51,35.45,7.21,35.92z M12.73,32.25c-1.03,0.43-1.98,0.1-2.81-0.58
		c-1.13-0.93-1.76-2.13-2.01-3.54C7.91,28.1,7.9,28.07,7.9,28.03c-0.15-1.2,0.33-2.32,1.19-2.75c0.85-0.43,2.07-0.16,2.99,0.66
		c1.2,1.07,1.83,2.39,1.88,3.86C13.94,30.89,13.76,31.83,12.73,32.25z M19.47,27.62c-0.95,0.49-1.86,0.2-2.71-0.3
		c-0.16-0.09-0.31-0.2-0.44-0.32c-1.38-1.3-2.24-2.82-1.91-4.73c0.31-1.73,1.96-2.45,3.53-1.56c1.78,1.01,2.63,2.58,2.77,4.37
		C20.67,26.23,20.42,27.12,19.47,27.62z"/>
	<path class="st0" d="M42.41,10.28c1.07-0.43,2.15-0.85,3.2-1.33c0.78-0.35,0.79-1.11,0.06-1.54c-0.28-0.16-0.6-0.27-0.91-0.37
		c-2.93-1.01-5.87-2.01-8.8-3.02c-3.63-1.25-7.25-2.49-10.88-3.75c-0.74-0.26-1.43-0.28-2.19-0.01c-2,0.73-4.02,1.39-6.04,2.09
		C12.12,3.97,7.38,5.6,2.64,7.24c-0.47,0.16-1,0.37-1,0.94c0,0.55,0.51,0.74,0.96,0.92c2.04,0.82,4.08,1.64,6.12,2.46
		c4.64,1.87,9.29,3.73,13.93,5.6c0.43,0.17,0.86,0.33,1.33,0.32c0.36,0.01,0.69-0.09,1.02-0.22C30.81,14.93,36.61,12.61,42.41,10.28
		z M23.73,9.96c-1.04-0.02-2.05-0.15-3.01-0.58c-0.56-0.25-1.05-0.6-1.08-1.25c-0.03-0.68,0.46-1.08,1.04-1.33
		c1.72-0.73,3.5-0.75,5.3-0.37c0.6,0.13,1.17,0.3,1.63,0.74c0.62,0.61,0.6,1.3-0.09,1.85c-0.48,0.38-1.05,0.58-1.65,0.71
		C25.17,9.88,24.46,9.98,23.73,9.96z"/>
</g>
</svg>
