<?xml version="1.0" encoding="utf-8"?>
<!-- Generator: Adobe Illustrator 23.0.3, SVG Export Plug-In . SVG Version: 6.00 Build 0)  -->
<svg version="1.1" id="Calque_1" xmlns="http://www.w3.org/2000/svg" xmlns:xlink="http://www.w3.org/1999/xlink" x="0px" y="0px"
	 viewBox="0 0 79.49 79.55" style="enable-background:new 0 0 79.49 79.55;" xml:space="preserve">
<style type="text/css">
	.st0{fill:#FFFFFF;}
</style>
<path class="st0" d="M19.98,26.9c-2.35,0-4.25,1.9-4.25,4.25c0,2.35,1.9,4.25,4.25,4.25c2.35,0,4.25-1.9,4.25-4.25
	C24.23,28.8,22.33,26.9,19.98,26.9z M31.61,26.9c-2.35,0-4.25,1.9-4.25,4.25c0,2.35,1.9,4.25,4.25,4.25c2.35,0,4.25-1.9,4.25-4.25
	C35.86,28.8,33.96,26.9,31.61,26.9z M43.24,26.9c-2.35,0-4.25,1.9-4.25,4.25c0,2.35,1.9,4.25,4.25,4.25c2.35,0,4.25-1.9,4.25-4.25
	C47.49,28.8,45.59,26.9,43.24,26.9z M79.1,72.08c-4.45-5.57-9.26-10.91-14.49-15.74c-1.8-1.66-5.07-1.91-8.38-2.82
	c11.33-19.19,9.42-36.13-5.01-47.05C38.31-3.3,20.15-1.86,8.95,9.83C-2.31,21.58-3.03,39.55,7.25,52.2
	c11.12,13.67,28.43,15.3,47.07,3.34c0.81,3.33,0.67,6.71,2.28,8.56c4.67,5.37,9.87,10.34,15.3,14.95c0.01,0,0.01,0.01,0.02,0.01
	l0.01,0.07c0.85,0.9,4.8,0.22,6.05-1.01C79.25,76.91,80,73.2,79.1,72.08z M31.63,55.96C18.53,55.8,7.95,45.01,8,31.87
	C8.05,18.53,18.96,7.82,32.34,7.99c13.1,0.16,23.68,10.94,23.63,24.09C55.92,45.39,44.98,56.12,31.63,55.96z"/>
</svg>
