<?xml version="1.0" encoding="utf-8"?>
<!-- Generator: Adobe Illustrator 23.0.3, SVG Export Plug-In . SVG Version: 6.00 Build 0)  -->
<svg version="1.1" id="Calque_1" xmlns="http://www.w3.org/2000/svg" xmlns:xlink="http://www.w3.org/1999/xlink" x="0px" y="0px"
	 viewBox="0 0 48 48" style="enable-background:new 0 0 48 48;" xml:space="preserve">
<style type="text/css">
	.st0{fill:#FFFFFF;}
</style>
<path class="st0" d="M24,0C10.75,0,0,10.75,0,24c0,13.25,10.75,24,24,24s24-10.75,24-24C48,10.75,37.25,0,24,0z M27.93,11.98
	c1.6,0.04,3.19,0.01,4.79,0.01c1.5,0,3,0,4.49,0c1.06,0,1.81,0.47,1.77,1.56c-0.03,0.99-0.73,1.45-1.74,1.44
	c-3.09-0.01-6.19-0.05-9.28,0.02c-1.17,0.03-1.03-0.68-0.95-1.34C27.09,13.01,26.47,11.94,27.93,11.98z M11.16,11.98
	c1.15,0.04,2.3,0.01,3.45,0.01c0.9,0,1.8-0.04,2.7,0.01c1.22,0.06,2.27,0.16,2.43-1.61c0.09-1.02,1.17-1.47,2.2-1.39
	c1.05,0.08,1.89,0.71,1.97,1.75c0.14,1.79,0.15,3.6,0.01,5.39c-0.08,1.1-0.91,1.76-2.06,1.82c-1.22,0.06-2.16-0.58-2.26-1.73
	c-0.1-1.22-0.67-1.27-1.61-1.25c-2.3,0.05-4.6,0-6.9,0.02C9.99,15,8.98,14.79,9.01,13.45C9.03,12.13,10.05,11.94,11.16,11.98z
	 M16.47,36.93c-0.15,1.24-0.91,2.05-2.17,2.08c-1.24,0.03-2.18-0.65-2.25-1.94c-0.05-1.01-0.51-1.11-1.31-1.06
	C9.65,36.09,8.97,35.54,9,34.45c0.03-1.04,0.78-1.47,1.75-1.41c0.79,0.04,1.25-0.03,1.3-1.05c0.07-1.27,0.97-1.95,2.25-1.92
	c1.31,0.03,2,0.86,2.16,2.07c0.1,0.79,0.02,1.6,0.02,2.4C16.49,35.33,16.57,36.14,16.47,36.93z M10.92,25.53
	c-1.12,0.01-1.94-0.41-1.91-1.59c0.03-1.09,0.84-1.47,1.89-1.46c4.91,0.02,9.82,0,14.73,0.02c0.8,0,1.37,0.05,1.46-1.09
	c0.1-1.21,1-1.97,2.31-1.88c1.37,0.1,2.06,0.96,2.1,2.29c0.05,1.45,0.04,2.91,0,4.36c-0.04,1.32-0.7,2.2-2.07,2.31
	c-1.31,0.1-2.2-0.64-2.33-1.85c-0.11-1.1-0.62-1.13-1.45-1.12c-2.4,0.03-4.81,0.01-7.21,0.01C15.93,25.53,13.43,25.51,10.92,25.53z
	 M36.92,36.03c-5.41-0.02-10.83-0.06-16.24,0.02c-1.44,0.02-1.15-0.8-1.2-1.62c-0.06-0.9-0.02-1.49,1.21-1.44
	c2.75,0.1,5.51,0.03,8.27,0.03c2.66,0,5.31,0.02,7.97-0.01c1.16-0.02,2.1,0.31,2.06,1.59C38.94,35.8,37.98,36.04,36.92,36.03z
	 M37.79,25.44c-0.48,0.12-0.99,0.08-1.05,0.08c-2.06,0-2.8-1.14-2.18-2.65c0.04-0.09,0.07-0.19,0.14-0.25
	c0.6-0.58,3.73-0.01,4.13,0.75C39.28,24.22,38.82,25.2,37.79,25.44z"/>
</svg>
